<svg width="25" height="24" viewBox="0 0 25 24" fill="none" xmlns="http://www.w3.org/2000/svg">
<path d="M21.5098 17.1447C21.1771 17.9133 20.7833 18.6208 20.327 19.2713C19.7051 20.158 19.1958 20.7719 18.8034 21.1127C18.195 21.6722 17.5432 21.9587 16.8451 21.975C16.3441 21.975 15.7398 21.8324 15.0363 21.5432C14.3306 21.2553 13.682 21.1127 13.089 21.1127C12.467 21.1127 11.8 21.2553 11.0865 21.5432C10.3719 21.8324 9.79628 21.9832 9.35615 21.9981C8.68681 22.0266 8.01963 21.7319 7.35368 21.1127C6.92863 20.742 6.39698 20.1064 5.76009 19.2061C5.07675 18.2446 4.51495 17.1297 4.07483 15.8587C3.60348 14.4857 3.36719 13.1563 3.36719 11.8692C3.36719 10.3948 3.68577 9.12321 4.32389 8.0576C4.82539 7.20166 5.49256 6.52647 6.32759 6.03081C7.16261 5.53514 8.06485 5.28256 9.03649 5.2664C9.56814 5.2664 10.2653 5.43085 11.1317 5.75405C11.9957 6.07834 12.5504 6.24279 12.7936 6.24279C12.9754 6.24279 13.5917 6.0505 14.6364 5.66714C15.6243 5.31162 16.4581 5.16441 17.1412 5.2224C18.9921 5.37178 20.3827 6.10142 21.3075 7.41595C19.6521 8.41896 18.8332 9.82379 18.8495 11.626C18.8645 13.0297 19.3737 14.1979 20.3745 15.1254C20.8281 15.5558 21.3346 15.8885 21.8982 16.1248C21.776 16.4793 21.647 16.8188 21.5098 17.1447ZM17.2648 0.440125C17.2648 1.54038 16.8628 2.56768 16.0616 3.51854C15.0947 4.64892 13.9252 5.30211 12.657 5.19904C12.6408 5.06705 12.6315 4.92812 12.6315 4.78214C12.6315 3.7259 13.0913 2.59552 13.9078 1.67127C14.3155 1.20331 14.834 0.814209 15.4627 0.503814C16.0901 0.19805 16.6835 0.0289566 17.2417 0C17.258 0.147086 17.2648 0.294182 17.2648 0.440111V0.440125Z" fill="black"/>
</svg>
