<svg width="100" height="100" viewBox="0 0 100 100" fill="none" xmlns="http://www.w3.org/2000/svg">
<circle cx="50" cy="50" r="49.5" fill="#E6C8BB" stroke="#C5896F"/>
<path d="M50 30C44.76 30 40.5 34.26 40.5 39.5C40.5 44.64 44.52 48.8 49.76 48.98C49.92 48.96 50.08 48.96 50.2 48.98C50.24 48.98 50.26 48.98 50.3 48.98C50.32 48.98 50.32 48.98 50.34 48.98C55.46 48.8 59.48 44.64 59.5 39.5C59.5 34.26 55.24 30 50 30Z" fill="#C5896F"/>
<path d="M60.1599 54.3C54.5799 50.58 45.4799 50.58 39.8599 54.3C37.3199 56 35.9199 58.3 35.9199 60.76C35.9199 63.22 37.3199 65.5 39.8399 67.18C42.6399 69.06 46.3199 70 49.9999 70C53.6799 70 57.3599 69.06 60.1599 67.18C62.6799 65.48 64.0799 63.2 64.0799 60.72C64.0599 58.26 62.6799 55.98 60.1599 54.3Z" fill="#C5896F"/>
</svg>
