<svg width="25" height="24" viewBox="0 0 25 24" fill="none" xmlns="http://www.w3.org/2000/svg">
<g clip-path="url(#clip0_3046_5802)">
<path d="M24.0993 12.2763C24.0993 11.4605 24.0331 10.6404 23.892 9.83789H12.5732V14.4589H19.055C18.786 15.9492 17.9218 17.2676 16.6563 18.1054V21.1037H20.5233C22.7941 19.0137 24.0993 15.9272 24.0993 12.2763Z" fill="#4285F4"/>
<path d="M12.5736 24.0008C15.81 24.0008 18.5394 22.9382 20.528 21.1039L16.661 18.1055C15.5852 18.8375 14.1962 19.252 12.578 19.252C9.44738 19.252 6.79296 17.1399 5.84054 14.3003H1.8501V17.3912C3.88721 21.4434 8.03639 24.0008 12.5736 24.0008Z" fill="#34A853"/>
<path d="M5.83578 14.3002C5.33312 12.8099 5.33312 11.196 5.83578 9.70569V6.61475H1.84974C0.147742 10.0055 0.147742 14.0004 1.84974 17.3912L5.83578 14.3002Z" fill="#FBBC04"/>
<path d="M12.5736 4.74966C14.2844 4.7232 15.9379 5.36697 17.1769 6.54867L20.603 3.12262C18.4336 1.0855 15.5543 -0.034466 12.5736 0.000808666C8.03639 0.000808666 3.88721 2.55822 1.8501 6.61481L5.83613 9.70575C6.78414 6.86173 9.44297 4.74966 12.5736 4.74966Z" fill="#EA4335"/>
</g>
<defs>
<clipPath id="clip0_3046_5802">
<rect width="24" height="24" fill="white" transform="translate(0.333496)"/>
</clipPath>
</defs>
</svg>
