<svg width="21" height="22" viewBox="0 0 21 22" fill="none" xmlns="http://www.w3.org/2000/svg">
<path d="M14.4375 8.05125C14.0787 8.05125 13.7812 7.75375 13.7812 7.395V6.1875C13.7812 5.26875 13.3875 4.37625 12.705 3.755C12.0138 3.125 11.1213 2.83625 10.1762 2.92375C8.60125 3.0725 7.21875 4.6825 7.21875 6.3625V7.21125C7.21875 7.57 6.92125 7.8675 6.5625 7.8675C6.20375 7.8675 5.90625 7.57 5.90625 7.21125V6.35375C5.90625 4 7.805 1.83 10.0538 1.61125C11.3663 1.48875 12.6262 1.9 13.5887 2.78375C14.5425 3.65 15.0938 4.8925 15.0938 6.1875V7.395C15.0938 7.75375 14.7963 8.05125 14.4375 8.05125Z" fill="#161D51"/>
<path d="M13.1251 20.4062H7.87509C3.83259 20.4062 3.08009 18.525 2.88759 16.6962L2.23134 11.455C2.13509 10.51 2.10009 9.15375 3.01884 8.13875C3.80634 7.26375 5.11009 6.84375 7.00009 6.84375H14.0001C15.8988 6.84375 17.2026 7.2725 17.9813 8.13875C18.8913 9.15375 18.8651 10.51 18.7688 11.4375L18.1126 16.6962C17.9201 18.525 17.1676 20.4062 13.1251 20.4062ZM7.00009 8.15625C5.52134 8.15625 4.50634 8.445 3.99009 9.0225C3.56134 9.495 3.42133 10.2213 3.53509 11.3063L4.19134 16.5475C4.34009 17.9475 4.72509 19.1025 7.87509 19.1025H13.1251C16.2751 19.1025 16.6601 17.9563 16.8088 16.565L17.4651 11.3063C17.5788 10.2388 17.4388 9.5125 17.0101 9.03125C16.4938 8.445 15.4788 8.15625 14.0001 8.15625H7.00009Z" fill="#161D51"/>
<path d="M13.4924 12.0062C13.0024 12.0062 12.6086 11.6125 12.6086 11.1312C12.6086 10.65 13.0024 10.2562 13.4836 10.2562C13.9649 10.2562 14.3586 10.65 14.3586 11.1312C14.3586 11.6125 13.9736 12.0062 13.4924 12.0062Z" fill="#161D51"/>
<path d="M7.36739 12.0062C6.87739 12.0062 6.48364 11.6125 6.48364 11.1312C6.48364 10.65 6.87739 10.2562 7.35864 10.2562C7.83989 10.2562 8.23364 10.65 8.23364 11.1312C8.23364 11.6125 7.84864 12.0062 7.36739 12.0062Z" fill="#161D51"/>
</svg>
