<svg width="792" height="652" viewBox="0 0 792 652" fill="none" xmlns="http://www.w3.org/2000/svg">
<path d="M711.978 197.692C733.268 250.118 717.437 312.017 674.282 369.803C631.139 427.57 560.787 481.068 473.429 516.543C386.072 552.018 298.339 562.717 227.136 551.383C155.911 540.047 101.405 506.71 80.1157 454.284C58.826 401.857 74.6568 339.958 117.812 282.172C160.954 224.405 231.307 170.907 318.664 135.432C406.022 99.9568 493.755 89.2584 564.958 100.592C636.183 111.928 690.688 145.265 711.978 197.692Z" stroke="white" stroke-width="2"/>
<path d="M708.952 461.496C686.466 513.42 631.21 545.498 559.744 555.198C488.3 564.895 400.835 552.188 314.314 514.718C227.793 477.249 158.686 422.151 116.88 363.41C75.0617 304.65 60.6546 242.404 83.1412 190.479C105.628 138.555 160.883 106.477 232.349 96.7769C303.794 87.0797 391.258 99.7874 477.779 137.257C564.3 174.726 633.407 229.823 675.213 288.565C717.032 347.325 731.439 409.571 708.952 461.496Z" stroke="white" stroke-width="2"/>
</svg>
