<svg width="82" height="15" viewBox="0 0 82 15" fill="none" xmlns="http://www.w3.org/2000/svg">
<path d="M28.3552 12.8489C27.9127 12.4193 27.4837 11.9628 27.0011 11.5466C26.2235 10.8887 25.3923 10.3248 24.4538 9.92199C20.0565 8.01546 15.0558 8.43169 10.3902 8.55253C8.13791 8.60623 5.88558 8.60622 3.64666 8.84789C2.77523 8.94187 0.75082 8.96873 0.160923 9.80115C0.147518 9.81458 3.8147e-05 10.0697 0.0402603 10.0697H4.19617e-05V4.08158H0.0402603C0.0804787 5.07512 4.23656 5.58533 10.2428 5.58533L13.5542 5.58533C16.5573 5.58533 20.2442 5.81356 23.0998 4.67233C23.502 4.51122 23.8103 4.22927 23.7433 3.75935C23.6897 3.34313 23.4484 2.96721 23.1936 2.64498C22.1881 1.31578 20.4184 1.07411 18.8767 1.2218C17.5762 1.34264 16.316 1.63801 15.1228 2.09451C14.8815 2.18849 14.6402 2.28246 14.3988 2.38987C14.2246 2.47043 14.0771 2.2422 14.2246 2.10793C14.8949 1.5306 15.6323 1.08753 16.4233 0.765305C17.2008 0.443075 18.0321 0.228255 18.9035 0.0939935C19.0778 0.067141 19.2655 0.0402885 19.4532 0.0268623C19.6811 0.013436 19.909 0 20.1369 0C20.2308 0 20.3246 0 20.4184 0C20.5927 0 20.767 0.0134328 20.9413 0.0402853C22.5903 0.214827 24.0114 1.03383 25.0303 2.37646C26.3978 4.16215 27.1217 8.0826 28.4356 9.93542C29.4679 11.372 30.822 13.0906 32.766 13.0503C34.4418 13.01 36.064 11.5197 35.5814 9.76089C35.273 8.64651 34.3614 7.93491 33.1414 7.96176C31.9482 7.98861 30.8488 7.46499 29.7495 7.08905C28.9048 6.80712 27.9396 6.61914 27.6714 5.69273C27.6312 5.57189 27.7385 5.46449 27.8591 5.47791C28.6099 5.58532 29.2802 5.69274 29.9774 5.73302C30.2455 5.74644 30.6343 5.59875 30.755 5.38393C31.4923 4.20243 32.3638 4.12186 33.5972 4.40381C35.9165 4.94086 37.4449 7.3173 37.646 9.59976C37.8471 12.0165 36.2517 14.2587 33.9189 14.8628C32.6051 15.1985 31.251 14.8897 30.0846 14.2452C29.4277 13.8693 28.878 13.3591 28.3552 12.8489Z" fill="#2A2320"/>
<g clip-path="url(#clip0_162_1026)">
<path d="M40.4427 5.86471C40.3867 5.53383 40.2391 5.17745 39.9998 4.79564C39.7605 4.40873 39.4194 4.04982 38.9765 3.71891C38.5387 3.388 38.1009 3.17673 37.6631 3.08509V2.76436C38.0958 2.66254 38.5107 2.47418 38.9078 2.19927C39.31 1.91927 39.646 1.58327 39.9158 1.19127C40.1907 0.789093 40.3664 0.392 40.4427 0H40.7634C40.8093 0.254545 40.9009 0.516727 41.0384 0.786545C41.1758 1.05127 41.3514 1.30582 41.5653 1.55018C41.7842 1.78946 42.0285 2.00582 42.2984 2.19927C42.7005 2.48437 43.1104 2.67273 43.5278 2.76436V3.08509C43.2478 3.14109 42.9576 3.25564 42.6573 3.42873C42.362 3.60182 42.0871 3.808 41.8325 4.04727C41.578 4.28145 41.3693 4.52836 41.2064 4.788C40.9671 5.16982 40.8194 5.52871 40.7634 5.86471H40.4427Z" fill="#2A2320"/>
</g>
<path d="M52.9711 12.8489C53.4136 12.4193 53.8426 11.9628 54.3252 11.5466C55.1028 10.8887 55.934 10.3248 56.8725 9.92199C61.2698 8.01546 66.2705 8.43169 70.9361 8.55253C73.1884 8.60623 75.4407 8.60622 77.6796 8.84789C78.5511 8.94187 80.5755 8.96873 81.1654 9.80115C81.1788 9.81458 81.3263 10.0697 81.286 10.0697H81.3263V4.08158H81.286C81.2458 5.07512 77.0897 5.58533 71.0835 5.58533H67.7721C64.769 5.58533 61.0821 5.81356 58.2265 4.67233C57.8243 4.51122 57.516 4.22927 57.583 3.75935C57.6366 3.34313 57.8779 2.96721 58.1327 2.64498C59.1382 1.31578 60.9078 1.07411 62.4496 1.2218C63.7501 1.34264 65.0103 1.63801 66.2035 2.09451C66.4448 2.18849 66.6861 2.28246 66.9275 2.38987C67.1017 2.47043 67.2492 2.2422 67.1017 2.10793C66.4314 1.5306 65.694 1.08753 64.903 0.765305C64.1255 0.443075 63.2942 0.228255 62.4228 0.0939935C62.2485 0.067141 62.0608 0.0402885 61.8731 0.0268623C61.6452 0.013436 61.4173 0 61.1894 0C61.0955 0 61.0017 0 60.9078 0C60.7336 0 60.5593 0.0134328 60.385 0.0402853C58.736 0.214827 57.3148 1.03383 56.296 2.37646C54.9285 4.16215 54.2045 8.0826 52.8907 9.93542C51.8584 11.372 50.5043 13.0906 48.5603 13.0503C46.8845 13.01 45.2623 11.5197 45.7449 9.76089C46.0533 8.64651 46.9649 7.93491 48.1849 7.96176C49.3781 7.98861 50.4775 7.46499 51.5768 7.08905C52.4215 6.80712 53.3867 6.61914 53.6549 5.69273C53.6951 5.57189 53.5878 5.46449 53.4672 5.47791C52.7164 5.58532 52.0461 5.69274 51.3489 5.73302C51.0808 5.74644 50.692 5.59875 50.5713 5.38393C49.834 4.20243 48.9625 4.12186 47.7291 4.40381C45.4098 4.94086 43.8814 7.3173 43.6803 9.59976C43.4792 12.0165 45.0746 14.2587 47.4074 14.8628C48.7212 15.1985 50.0753 14.8897 51.2417 14.2452C51.8986 13.8693 52.4483 13.3591 52.9711 12.8489Z" fill="#2A2320"/>
<defs>
<clipPath id="clip0_162_1026">
<rect width="6" height="6" fill="white" transform="translate(37.6631)"/>
</clipPath>
</defs>
</svg>
