<svg width="21" height="22" viewBox="0 0 21 22" fill="none" xmlns="http://www.w3.org/2000/svg">
<path d="M15.5663 20.4062H5.43375C3.03625 20.4062 1.09375 18.455 1.09375 16.0575V9.57373C1.09375 8.38373 1.82875 6.88748 2.77375 6.15248L7.49 2.47748C8.9075 1.37498 11.1737 1.32248 12.6438 2.35498L18.0512 6.14373C19.0925 6.86998 19.9062 8.42748 19.9062 9.69623V16.0662C19.9062 18.455 17.9638 20.4062 15.5663 20.4062ZM8.295 3.50998L3.57875 7.18498C2.9575 7.67498 2.40625 8.78623 2.40625 9.57373V16.0575C2.40625 17.7287 3.7625 19.0937 5.43375 19.0937H15.5663C17.2375 19.0937 18.5938 17.7375 18.5938 16.0662V9.69623C18.5938 8.85623 17.99 7.69248 17.2987 7.21998L11.8913 3.43123C10.8938 2.73123 9.24875 2.76623 8.295 3.50998Z" fill="#161D51"/>
<path d="M10.5 16.9062C10.1413 16.9062 9.84375 16.6088 9.84375 16.25V13.625C9.84375 13.2663 10.1413 12.9688 10.5 12.9688C10.8587 12.9688 11.1562 13.2663 11.1562 13.625V16.25C11.1562 16.6088 10.8587 16.9062 10.5 16.9062Z" fill="#161D51"/>
</svg>
