<svg width="24" height="23" viewBox="0 0 24 23" fill="none" xmlns="http://www.w3.org/2000/svg">
<path d="M11.3567 1.26054C11.6248 0.735301 12.3752 0.735301 12.6433 1.26054L15.73 7.30896C15.8349 7.51459 16.0319 7.65766 16.2599 7.69393L22.9661 8.7605C23.5485 8.85312 23.7804 9.56688 23.3637 9.98412L18.5651 14.7888C18.402 14.9522 18.3268 15.1837 18.3627 15.4117L19.4207 22.1193C19.5126 22.7018 18.9054 23.1429 18.3798 22.8755L12.3275 19.7966C12.1217 19.6919 11.8783 19.6919 11.6725 19.7966L5.62015 22.8755C5.09457 23.1429 4.48741 22.7018 4.57928 22.1193L5.63725 15.4117C5.67322 15.1837 5.598 14.9522 5.43487 14.7888L0.636319 9.98412C0.21962 9.56688 0.451536 8.85312 1.0339 8.7605L7.74014 7.69393C7.96813 7.65766 8.16505 7.51459 8.26999 7.30896L11.3567 1.26054Z" fill="#F79009"/>
</svg>
