<svg width="46" height="45" viewBox="0 0 46 45" fill="none" xmlns="http://www.w3.org/2000/svg">
<path d="M22.6248 24.9381C22.381 24.9381 22.1373 24.8818 21.9123 24.7506L5.35604 15.1693C4.69979 14.7756 4.45604 13.9131 4.84979 13.2381C5.24354 12.5631 6.10604 12.3381 6.78104 12.7318L22.6248 21.9006L38.3748 12.7881C39.0498 12.3943 39.9123 12.6381 40.306 13.2943C40.6998 13.9693 40.456 14.8318 39.7998 15.2256L23.356 24.7506C23.1123 24.8631 22.8685 24.9381 22.6248 24.9381Z" fill="#161D51"/>
<path d="M22.625 41.9242C21.8562 41.9242 21.2188 41.2867 21.2188 40.518V23.5117C21.2188 22.743 21.8562 22.1055 22.625 22.1055C23.3937 22.1055 24.0312 22.743 24.0312 23.5117V40.518C24.0312 41.2867 23.3937 41.9242 22.625 41.9242Z" fill="#161D51"/>
<path d="M22.6252 42.6572C20.9752 42.6572 19.3439 42.301 18.0502 41.5885L8.03769 36.0197C5.31894 34.5197 3.2002 30.901 3.2002 27.7885V17.1947C3.2002 14.0822 5.31894 10.4822 8.03769 8.96348L18.0502 3.41348C20.6189 1.98848 24.6314 1.98848 27.2002 3.41348L37.2127 8.98223C39.9314 10.4822 42.0502 14.101 42.0502 17.2135V27.8072C42.0502 30.9197 39.9314 34.5197 37.2127 36.0385L27.2002 41.5885C25.9064 42.301 24.2752 42.6572 22.6252 42.6572ZM22.6252 5.15723C21.4439 5.15723 20.2814 5.40098 19.4189 5.86973L9.40644 11.4385C7.60644 12.4322 6.0127 15.1322 6.0127 17.1947V27.7885C6.0127 29.851 7.60644 32.551 9.40644 33.5635L19.4189 39.1322C21.1252 40.0885 24.1252 40.0885 25.8314 39.1322L35.8439 33.5635C37.6439 32.551 39.2377 29.8697 39.2377 27.7885V17.1947C39.2377 15.1322 37.6439 12.4322 35.8439 11.4197L25.8314 5.85098C24.9689 5.40098 23.8064 5.15723 22.6252 5.15723Z" fill="#161D51"/>
</svg>
