<svg width="17" height="18" viewBox="0 0 17 18" fill="none" xmlns="http://www.w3.org/2000/svg">
<path d="M4.88745 6.13574H7.86304C9.18512 6.13581 10.0282 6.43173 10.5486 6.95215C11.0689 7.47262 11.365 8.31556 11.365 9.6377V12.6133C11.3649 13.9354 11.069 14.7784 10.5486 15.2988C10.0282 15.8192 9.18512 16.1152 7.86304 16.1152H4.88745C3.56532 16.1152 2.72238 15.8192 2.2019 15.2988C1.68149 14.7784 1.38557 13.9354 1.3855 12.6133V9.6377C1.38552 8.31542 1.68145 7.47261 2.2019 6.95215C2.72236 6.43169 3.56518 6.13576 4.88745 6.13574ZM4.88745 6.19824C3.76005 6.19826 2.84894 6.38323 2.24097 6.99121C1.63299 7.59919 1.44801 8.51029 1.448 9.6377V12.6133C1.44805 13.7405 1.63305 14.6518 2.24097 15.2598C2.84894 15.8676 3.76015 16.0527 4.88745 16.0527H7.86304C8.99029 16.0527 9.9016 15.8677 10.5095 15.2598C11.1174 14.6518 11.3024 13.7405 11.3025 12.6133V9.6377C11.3025 8.51039 11.1174 7.59919 10.5095 6.99121C9.9016 6.38329 8.99029 6.19829 7.86304 6.19824H4.88745Z" fill="#161D51" stroke="#161D51"/>
<path d="M9.13745 1.88574H12.113C13.4351 1.88581 14.2782 2.18173 14.7986 2.70215C15.3189 3.22262 15.615 4.06556 15.615 5.3877V8.36328C15.6149 9.68537 15.319 10.5284 14.7986 11.0488C14.2782 11.5692 13.4351 11.8652 12.113 11.8652H11.3337C11.3292 11.8652 11.3209 11.8631 11.3123 11.8545C11.304 11.8462 11.3026 11.8385 11.3025 11.834V9.6377C11.3025 8.51039 11.1174 7.59919 10.5095 6.99121C9.9016 6.38329 8.99029 6.19829 7.86304 6.19824H5.66675C5.66223 6.19824 5.65485 6.19611 5.64624 6.1875C5.63763 6.17889 5.6355 6.17151 5.6355 6.16699V5.3877C5.63552 4.06542 5.93145 3.22261 6.4519 2.70215C6.97236 2.18169 7.81518 1.88576 9.13745 1.88574ZM9.13745 1.94824C8.01005 1.94826 7.09894 2.13323 6.49097 2.74121C5.88299 3.34919 5.69801 4.26029 5.698 5.3877V6.13574H7.86304C9.18512 6.13581 10.0282 6.43173 10.5486 6.95215C11.0689 7.47262 11.365 8.31556 11.365 9.6377V11.8027H12.113C13.2403 11.8027 14.1516 11.6177 14.7595 11.0098C15.3674 10.4018 15.5524 9.49053 15.5525 8.36328V5.3877C15.5525 4.26039 15.3674 3.34919 14.7595 2.74121C14.1516 2.13329 13.2403 1.94829 12.113 1.94824H9.13745Z" fill="#161D51" stroke="#161D51"/>
</svg>
