<svg width="21" height="22" viewBox="0 0 21 22" fill="none" xmlns="http://www.w3.org/2000/svg">
<path d="M10.5 12.8985C8.63627 12.8985 7.11377 11.3848 7.11377 9.51227C7.11377 7.63977 8.63627 6.13477 10.5 6.13477C12.3638 6.13477 13.8863 7.64852 13.8863 9.52102C13.8863 11.3935 12.3638 12.8985 10.5 12.8985ZM10.5 7.44727C9.36252 7.44727 8.42627 8.37477 8.42627 9.52102C8.42627 10.6673 9.35377 11.5948 10.5 11.5948C11.6463 11.5948 12.5738 10.6673 12.5738 9.52102C12.5738 8.37477 11.6375 7.44727 10.5 7.44727Z" fill="#161D51"/>
<path d="M10.5 20.415C9.20497 20.415 7.90122 19.925 6.88622 18.9538C4.30497 16.4688 1.45247 12.505 2.52872 7.78875C3.49997 3.51 7.23622 1.59375 10.5 1.59375C10.5 1.59375 10.5 1.59375 10.5087 1.59375C13.7725 1.59375 17.5087 3.51 18.48 7.7975C19.5475 12.5138 16.695 16.4688 14.1137 18.9538C13.0987 19.925 11.795 20.415 10.5 20.415ZM10.5 2.90625C7.95372 2.90625 4.68122 4.2625 3.81497 8.0775C2.86997 12.1988 5.45997 15.7513 7.80497 18C9.31872 19.4613 11.69 19.4613 13.2037 18C15.54 15.7513 18.13 12.1988 17.2025 8.0775C16.3275 4.2625 13.0462 2.90625 10.5 2.90625Z" fill="#161D51"/>
</svg>
