<svg width="17" height="18" viewBox="0 0 17 18" fill="none" xmlns="http://www.w3.org/2000/svg">
<path d="M10.2214 13.8309C10.0868 13.8309 9.95221 13.7813 9.84596 13.675C9.64054 13.4696 9.64054 13.1296 9.84596 12.9242L13.7701 9.00002L9.84596 5.07586C9.64054 4.87044 9.64054 4.53044 9.84596 4.32502C10.0514 4.11961 10.3914 4.11961 10.5968 4.32502L14.8964 8.62461C15.1018 8.83002 15.1018 9.17002 14.8964 9.37544L10.5968 13.675C10.4905 13.7813 10.356 13.8309 10.2214 13.8309Z" fill="#161D51"/>
<path d="M14.4003 9.53125H2.479C2.18859 9.53125 1.94775 9.29042 1.94775 9C1.94775 8.70958 2.18859 8.46875 2.479 8.46875H14.4003C14.6907 8.46875 14.9315 8.70958 14.9315 9C14.9315 9.29042 14.6907 9.53125 14.4003 9.53125Z" fill="#161D51"/>
</svg>
