<svg width="21" height="22" viewBox="0 0 21 22" fill="none" xmlns="http://www.w3.org/2000/svg">
<path d="M10.5088 20.4063C9.95753 20.4063 9.40628 20.2225 8.97753 19.855L7.59502 18.665C7.45502 18.5425 7.10503 18.42 6.92128 18.42H5.40752C4.11252 18.42 3.06252 17.3701 3.06252 16.0751V14.5787C3.06252 14.395 2.94002 14.0537 2.81753 13.9137L1.63627 12.5225C0.91877 11.6738 0.91877 10.335 1.63627 9.48629L2.81753 8.09507C2.94002 7.95507 3.06252 7.61381 3.06252 7.43006V5.93374C3.06252 4.63874 4.11252 3.5888 5.40752 3.5888H6.92128C7.10503 3.5888 7.45502 3.45753 7.59502 3.34378L8.97753 2.15379C9.83503 1.41879 11.1738 1.41879 12.0313 2.15379L13.4138 3.34378C13.5538 3.46628 13.9038 3.5888 14.0875 3.5888H15.575C16.87 3.5888 17.92 4.63874 17.92 5.93374V7.42131C17.92 7.60506 18.0513 7.95507 18.1738 8.09507L19.355 9.47753C20.09 10.335 20.09 11.6738 19.355 12.5313L18.1738 13.9137C18.0513 14.0537 17.9288 14.4038 17.9288 14.5875V16.0751C17.9288 17.3701 16.8788 18.42 15.5838 18.42H14.0963C13.9125 18.42 13.5625 18.5513 13.4225 18.665L12.04 19.855C11.6025 20.2225 11.0513 20.4063 10.5088 20.4063ZM5.40752 4.89254C4.83877 4.89254 4.37502 5.35623 4.37502 5.92498V7.42131C4.37502 7.92006 4.13877 8.55879 3.82377 8.93504L2.64251 10.3263C2.33626 10.685 2.33626 11.3063 2.64251 11.665L3.82377 13.0563C4.14752 13.4413 4.38378 14.08 4.38378 14.57V16.0663C4.38378 16.6351 4.84753 17.0987 5.41628 17.0987H6.93004C7.43754 17.0987 8.07629 17.335 8.46129 17.6675L9.84377 18.8575C10.2025 19.1638 10.8325 19.1638 11.1913 18.8575L12.5738 17.6675C12.9588 17.3438 13.5975 17.0987 14.105 17.0987H15.5925C16.1613 17.0987 16.625 16.6351 16.625 16.0663V14.5787C16.625 14.0712 16.8613 13.4325 17.1938 13.0475L18.375 11.665C18.6813 11.3063 18.6813 10.6763 18.375 10.3175L17.1938 8.93504C16.87 8.55004 16.625 7.91129 16.625 7.40379V5.91622C16.625 5.34747 16.1613 4.88378 15.5925 4.88378H14.105C13.6063 4.88378 12.9588 4.64751 12.5738 4.31501L11.1913 3.12503C10.8325 2.81878 10.2025 2.81878 9.84377 3.12503L8.46129 4.31501C8.07629 4.63876 7.43754 4.88378 6.93004 4.88378H5.40752V4.89254Z" fill="#161D51"/>
<path d="M12.25 15.3486H10.6925C10.325 15.3486 9.77377 15.2349 9.45002 14.9111L8.24254 13.9837L9.04753 12.9424L10.3163 13.9223C10.4038 13.9836 10.5613 14.0273 10.6925 14.0273H12.25C12.46 14.0273 12.7138 13.8437 12.7575 13.6599L13.755 10.6236C13.7813 10.5448 13.7813 10.4924 13.7725 10.4749C13.755 10.4486 13.6938 10.4223 13.6063 10.4223H11.97C11.655 10.4223 11.3663 10.2912 11.1563 10.0549C10.955 9.81866 10.8588 9.50366 10.9025 9.17991L11.1125 7.85866C11.13 7.78866 11.0775 7.70109 11.025 7.68359C10.9725 7.67484 10.8938 7.69238 10.8675 7.71863L9.19629 10.2036L8.10254 9.46863L9.78252 6.9749C10.1325 6.4499 10.8675 6.22241 11.4625 6.44116C12.1275 6.65991 12.5563 7.41242 12.4075 8.09492L12.25 9.09233H13.6063C14.1225 9.09233 14.5775 9.31113 14.8488 9.69613C15.1113 10.0724 15.1725 10.5624 15.0063 11.0262L14.0263 14.0012C13.8425 14.7537 13.0638 15.3486 12.25 15.3486Z" fill="#161D51"/>
<path d="M7.78746 14.9029H7.37621C6.08996 14.9029 5.89746 14.0016 5.89746 13.4679V9.4604C5.89746 8.92665 6.08996 8.02539 7.37621 8.02539H7.78746C9.07371 8.02539 9.26622 8.92665 9.26622 9.4604V13.4679C9.26622 14.0016 9.07371 14.9029 7.78746 14.9029ZM7.22748 13.5816C7.26248 13.5904 7.31497 13.5904 7.38497 13.5904H7.79622C7.86622 13.5904 7.91872 13.5904 7.95372 13.5816C7.95372 13.5554 7.96247 13.5204 7.96247 13.4679V9.4604C7.96247 9.4079 7.96247 9.3729 7.95372 9.34665C7.91872 9.3379 7.86622 9.33789 7.79622 9.33789H7.38497C7.31497 9.33789 7.26248 9.3379 7.22748 9.34665C7.22748 9.3729 7.21872 9.4079 7.21872 9.4604V13.4679C7.21872 13.5204 7.21873 13.5554 7.22748 13.5816Z" fill="#161D51"/>
</svg>
