<svg width="17" height="17" viewBox="0 0 17 17" fill="none" xmlns="http://www.w3.org/2000/svg">
<path d="M10.2284 5.13578C10.0938 5.13578 9.95924 5.0862 9.85299 4.97995L8.41508 3.54203L6.97716 4.97995C6.77175 5.18536 6.43174 5.18536 6.22633 4.97995C6.02091 4.77453 6.02091 4.43453 6.22633 4.22911L8.03966 2.41578C8.24508 2.21036 8.58508 2.21036 8.79049 2.41578L10.6038 4.22911C10.8092 4.43453 10.8092 4.77453 10.6038 4.97995C10.4976 5.0862 10.363 5.13578 10.2284 5.13578Z" fill="#161D51"/>
<path d="M8.41504 10.5758C8.12462 10.5758 7.88379 10.335 7.88379 10.0446V2.84082C7.88379 2.5504 8.12462 2.30957 8.41504 2.30957C8.70546 2.30957 8.94629 2.5504 8.94629 2.84082V10.0446C8.94629 10.3421 8.70546 10.5758 8.41504 10.5758Z" fill="#161D51"/>
<path d="M8.50016 14.6979C4.85225 14.6979 2.30225 12.1479 2.30225 8.5C2.30225 8.20958 2.54308 7.96875 2.8335 7.96875C3.12391 7.96875 3.36475 8.20958 3.36475 8.5C3.36475 11.5246 5.47558 13.6354 8.50016 13.6354C11.5247 13.6354 13.6356 11.5246 13.6356 8.5C13.6356 8.20958 13.8764 7.96875 14.1668 7.96875C14.4572 7.96875 14.6981 8.20958 14.6981 8.5C14.6981 12.1479 12.1481 14.6979 8.50016 14.6979Z" fill="#161D51"/>
</svg>
