<svg width="18" height="18" viewBox="0 0 18 18" fill="none" xmlns="http://www.w3.org/2000/svg">
<g clip-path="url(#clip0_3114_12436)">
<path d="M16.7188 9.00058L17.4647 7.05528C17.5465 6.84067 17.4827 6.59737 17.3032 6.45182L15.6862 5.14078L15.3589 3.08286C15.3228 2.8555 15.1443 2.67808 14.917 2.64195L12.859 2.31473L11.5491 0.696648C11.4046 0.517098 11.156 0.453353 10.9467 0.535159L9.0003 1.28205L7.05499 0.536222C6.83932 0.453353 6.59815 0.519223 6.4526 0.697711L5.14156 2.31579L3.08364 2.64301C2.97312 2.66081 2.87103 2.713 2.79187 2.79215C2.71272 2.87131 2.66053 2.9734 2.64273 3.08392L2.31551 5.14184L0.697428 6.45288C0.51894 6.59737 0.454132 6.84067 0.535939 7.05528L1.28176 9.00058L0.535939 10.9459C0.45307 11.1605 0.51894 11.4038 0.697428 11.5483L2.31551 12.8583L2.64273 14.9162C2.67885 15.1435 2.85628 15.322 3.08364 15.3581L5.14156 15.6854L6.4526 17.3024C6.52298 17.3899 6.61942 17.4528 6.72792 17.4818C6.83643 17.5108 6.95136 17.5046 7.05606 17.4639L9.0003 16.7191L10.9456 17.4649C11.0063 17.4881 11.0708 17.5 11.1358 17.5C11.292 17.5 11.446 17.4309 11.5491 17.3024L12.859 15.6854L14.917 15.3581C15.0278 15.3405 15.1303 15.2883 15.2097 15.2089C15.289 15.1295 15.3413 15.027 15.3589 14.9162L15.6862 12.8583L17.3032 11.5483C17.4827 11.4027 17.5465 11.1605 17.4647 10.9459L16.7188 9.00058Z" fill="#F44336"/>
<path d="M7.40663 7.93815C6.528 7.93815 5.81299 7.22314 5.81299 6.34451C5.81299 5.46589 6.528 4.75087 7.40663 4.75087C8.28526 4.75087 9.00027 5.46589 9.00027 6.34451C9.00027 7.22314 8.28526 7.93815 7.40663 7.93815ZM7.40663 5.8133C7.1134 5.8133 6.87542 6.05128 6.87542 6.34451C6.87542 6.63774 7.1134 6.87573 7.40663 6.87573C7.69986 6.87573 7.93784 6.63774 7.93784 6.34451C7.93784 6.05128 7.69986 5.8133 7.40663 5.8133ZM10.5939 13.2503C9.71528 13.2503 9.00027 12.5353 9.00027 11.6566C9.00027 10.778 9.71528 10.063 10.5939 10.063C11.4725 10.063 12.1876 10.778 12.1876 11.6566C12.1876 12.5353 11.4725 13.2503 10.5939 13.2503ZM10.5939 11.1254C10.3017 11.1254 10.0627 11.3645 10.0627 11.6566C10.0627 11.9488 10.3017 12.1879 10.5939 12.1879C10.8861 12.1879 11.1251 11.9488 11.1251 11.6566C11.1251 11.3645 10.8861 11.1254 10.5939 11.1254ZM6.3442 13.2503C6.2369 13.2503 6.12959 13.2184 6.0361 13.1515C5.79705 12.9804 5.74181 12.649 5.91286 12.4099L11.225 4.97292C11.396 4.73387 11.7275 4.67863 11.9666 4.84968C12.2056 5.01967 12.2598 5.35221 12.0898 5.59019L6.77767 13.0272C6.67249 13.1727 6.50994 13.2503 6.3442 13.2503Z" fill="#FAFAFA"/>
</g>
<defs>
<clipPath id="clip0_3114_12436">
<rect width="17" height="17" fill="white" transform="translate(0.5 0.5)"/>
</clipPath>
</defs>
</svg>
