<svg width="21" height="21" viewBox="0 0 21 21" fill="none" xmlns="http://www.w3.org/2000/svg">
<path d="M18.3752 5.88875C18.3577 5.88875 18.3314 5.88875 18.3052 5.88875C13.6765 5.425 9.05645 5.25 4.4802 5.71375L2.6952 5.88875C2.3277 5.92375 2.00395 5.66125 1.96895 5.29375C1.93395 4.92625 2.19645 4.61125 2.5552 4.57625L4.3402 4.40125C8.9952 3.92875 13.7114 4.1125 18.4364 4.57625C18.7952 4.61125 19.0577 4.935 19.0227 5.29375C18.9965 5.635 18.7077 5.88875 18.3752 5.88875Z" fill="#F04438"/>
<path d="M7.43766 5.005C7.40266 5.005 7.36766 5.005 7.32391 4.99625C6.97391 4.935 6.72891 4.59375 6.79016 4.24375L6.98266 3.0975C7.12266 2.2575 7.31516 1.09375 9.35391 1.09375H11.6464C13.6939 1.09375 13.8864 2.30125 14.0177 3.10625L14.2102 4.24375C14.2714 4.6025 14.0264 4.94375 13.6764 4.99625C13.3177 5.0575 12.9764 4.8125 12.9239 4.4625L12.7314 3.325C12.6089 2.56375 12.5827 2.415 11.6552 2.415H9.36266C8.43516 2.415 8.41766 2.5375 8.28641 3.31625L8.08516 4.45375C8.03266 4.7775 7.75266 5.005 7.43766 5.005Z" fill="#F04438"/>
<path d="M13.3086 19.9062H7.6911C4.63735 19.9062 4.51485 18.2175 4.4186 16.8525L3.84985 8.04125C3.8236 7.6825 4.1036 7.3675 4.46235 7.34125C4.82985 7.32375 5.1361 7.595 5.16235 7.95375L5.7311 16.765C5.82735 18.095 5.86235 18.5937 7.6911 18.5937H13.3086C15.1461 18.5937 15.1811 18.095 15.2686 16.765L15.8374 7.95375C15.8636 7.595 16.1786 7.32375 16.5374 7.34125C16.8961 7.3675 17.1761 7.67375 17.1499 8.04125L16.5811 16.8525C16.4849 18.2175 16.3624 19.9062 13.3086 19.9062Z" fill="#F04438"/>
<path d="M11.9523 15.0938H9.03857C8.67982 15.0938 8.38232 14.7962 8.38232 14.4375C8.38232 14.0788 8.67982 13.7812 9.03857 13.7812H11.9523C12.3111 13.7812 12.6086 14.0788 12.6086 14.4375C12.6086 14.7962 12.3111 15.0938 11.9523 15.0938Z" fill="#F04438"/>
<path d="M12.6875 11.5938H8.3125C7.95375 11.5938 7.65625 11.2962 7.65625 10.9375C7.65625 10.5788 7.95375 10.2812 8.3125 10.2812H12.6875C13.0462 10.2812 13.3438 10.5788 13.3438 10.9375C13.3438 11.2962 13.0462 11.5938 12.6875 11.5938Z" fill="#F04438"/>
</svg>
