<svg width="35" height="35" viewBox="0 0 35 35" fill="none" xmlns="http://www.w3.org/2000/svg">
<g clip-path="url(#clip0_3145_13052)">
<path d="M6.32461 12.0657C6.20855 12.0657 6.09725 12.1118 6.01519 12.1939C5.93313 12.2759 5.88702 12.3872 5.88702 12.5033V13.4523H4.93803C4.69637 13.4523 4.50078 13.6482 4.50078 13.8898C4.50078 14.1313 4.69637 14.3274 4.93803 14.3274H5.88702V15.276C5.88702 15.3921 5.93313 15.5034 6.01519 15.5854C6.09725 15.6675 6.20855 15.7136 6.32461 15.7136C6.44066 15.7136 6.55197 15.6675 6.63403 15.5854C6.71609 15.5034 6.7622 15.3921 6.7622 15.276V14.3274H7.71077C7.82682 14.3274 7.93812 14.2813 8.02019 14.1993C8.10225 14.1172 8.14835 14.0059 8.14835 13.8899C8.14835 13.7738 8.10225 13.6625 8.02019 13.5804C7.93812 13.4984 7.82682 13.4523 7.71077 13.4523H6.7622V12.5033C6.76217 12.3872 6.71606 12.276 6.634 12.1939C6.55194 12.1119 6.44065 12.0657 6.32461 12.0657ZM25.4652 4.70313H26.4142V5.65204C26.4142 5.76803 26.4602 5.87927 26.5422 5.96131C26.6242 6.04335 26.7354 6.08947 26.8514 6.08954C26.9674 6.08954 27.0787 6.04345 27.1608 5.9614C27.2428 5.87936 27.289 5.76808 27.289 5.65204V4.70304H28.238C28.354 4.70304 28.4652 4.65698 28.5472 4.57499C28.6293 4.493 28.6754 4.38178 28.6755 4.2658C28.6755 4.14976 28.6294 4.03847 28.5473 3.95641C28.4653 3.87435 28.354 3.82823 28.238 3.82821H27.289V2.87921C27.289 2.76319 27.2429 2.65192 27.1608 2.56988C27.0788 2.48784 26.9675 2.44173 26.8515 2.44171C26.7355 2.44176 26.6242 2.48787 26.5422 2.56991C26.4602 2.65196 26.4142 2.76321 26.4142 2.87921V3.82821H25.4652C25.3492 3.82821 25.2379 3.8743 25.1558 3.95635C25.0738 4.03839 25.0277 4.14967 25.0277 4.26571C25.0277 4.38171 25.0738 4.49295 25.1559 4.57496C25.2379 4.65697 25.3491 4.70304 25.4652 4.70304L25.4652 4.70313ZM30.2777 12.9409H31.2267V13.8899C31.2267 14.0059 31.2727 14.1171 31.3547 14.1992C31.4367 14.2812 31.548 14.3273 31.664 14.3274C31.78 14.3273 31.8913 14.2812 31.9733 14.1992C32.0554 14.1171 32.1015 14.0059 32.1015 13.8899V12.9409H33.0505C33.1665 12.9409 33.2778 12.8948 33.3599 12.8127C33.442 12.7306 33.4881 12.6193 33.4881 12.5033C33.4881 12.3872 33.442 12.2759 33.3599 12.1939C33.2778 12.1118 33.1665 12.0657 33.0505 12.0657H32.1016V11.1171C32.1016 11.0596 32.0903 11.0027 32.0683 10.9496C32.0463 10.8965 32.0141 10.8483 31.9734 10.8076C31.9328 10.767 31.8846 10.7348 31.8315 10.7128C31.7784 10.6908 31.7215 10.6794 31.664 10.6794C31.6065 10.6795 31.5496 10.6908 31.4966 10.7128C31.4435 10.7348 31.3953 10.7671 31.3547 10.8077C31.3141 10.8483 31.2819 10.8966 31.2599 10.9497C31.2379 11.0028 31.2266 11.0597 31.2267 11.1171V12.0657H30.2777C30.1617 12.0657 30.0504 12.1118 29.9683 12.1939C29.8863 12.2759 29.8402 12.3872 29.8402 12.5033C29.8402 12.6193 29.8863 12.7306 29.9683 12.8127C30.0504 12.8948 30.1617 12.9409 30.2777 12.9409ZM0.22533 4.64827L1.19227 5.18438C2.08419 5.67836 2.8135 6.41766 3.30116 7.32163L3.83018 8.30156C3.90623 8.44315 4.05414 8.53125 4.21504 8.53125C4.37594 8.53125 4.52377 8.44315 4.5999 8.30156L5.12892 7.32163C5.61658 6.41766 6.34597 5.67844 7.23781 5.18438L8.20449 4.64827C8.27281 4.61041 8.32975 4.55496 8.3694 4.48766C8.40905 4.42037 8.42996 4.34369 8.42996 4.26558C8.42996 4.18748 8.40905 4.1108 8.3694 4.0435C8.32975 3.97621 8.27281 3.92075 8.20449 3.8829L7.23781 3.34713C6.34597 2.85289 5.61658 2.1135 5.12892 1.20962L4.5999 0.229602C4.44738 -0.053064 3.9827 -0.053064 3.83018 0.229602L3.30116 1.2097C2.8135 2.1135 2.08419 2.85289 1.19227 3.34722L0.22533 3.88298C0.157065 3.9209 0.100177 3.97638 0.060559 4.04367C0.020941 4.11096 3.2841e-05 4.18762 0 4.26571C6.06129e-05 4.34376 0.0209829 4.42037 0.0606004 4.48762C0.100218 4.55487 0.157091 4.61038 0.22533 4.64827ZM1.61653 4.11224C2.65491 3.53683 3.50376 2.6767 4.07089 1.62524L4.21504 1.35847L4.35894 1.6249C4.92598 2.67661 5.77517 3.53683 6.81355 4.11224L7.09032 4.2658L6.81355 4.41901C5.77517 4.99442 4.92598 5.85455 4.35894 6.90601L4.21504 7.17269L4.07089 6.90635C3.50376 5.85464 2.65499 4.99442 1.61653 4.41892L1.33984 4.2658L1.61653 4.11224ZM7.60763 22.3112L7.07861 23.2913C6.59061 24.1955 5.86165 24.9345 4.97007 25.4284L4.00278 25.9645C3.93453 26.0024 3.87765 26.0579 3.83803 26.1251C3.79841 26.1924 3.7775 26.269 3.77745 26.3471C3.77747 26.4252 3.79837 26.5019 3.83799 26.5692C3.87761 26.6365 3.93451 26.692 4.00278 26.7299L4.97007 27.2657C5.86199 27.76 6.59095 28.4993 7.07861 29.4032L7.60763 30.3832C7.64504 30.4527 7.70058 30.5107 7.76835 30.5512C7.83612 30.5916 7.91358 30.6129 7.99249 30.6129C8.07141 30.6129 8.14887 30.5916 8.21664 30.5512C8.2844 30.5107 8.33994 30.4527 8.37736 30.3832L8.90637 29.4032C9.39403 28.4993 10.1234 27.7601 11.0153 27.2657L11.9823 26.7299C12.0506 26.692 12.1074 26.6365 12.147 26.5691C12.1866 26.5018 12.2075 26.4252 12.2075 26.3471C12.2075 26.269 12.1866 26.1924 12.147 26.1251C12.1074 26.0579 12.0505 26.0024 11.9823 25.9645L11.015 25.4285C10.1234 24.9345 9.39437 24.1955 8.90637 23.2912L8.37744 22.3112C8.22483 22.0286 7.76016 22.0286 7.60763 22.3112ZM10.591 26.1939L10.8678 26.3471L10.591 26.5006C9.55263 27.076 8.70377 27.9362 8.13639 28.9876L7.99249 29.2543L7.84868 28.9877C7.28121 27.9363 6.43279 27.076 5.39432 26.5006L5.11764 26.3471L5.39432 26.1939C6.43236 25.6184 7.28121 24.7586 7.84868 23.7069L7.99249 23.4401L8.13639 23.7065C8.70377 24.7586 9.55297 25.6184 10.591 26.1939ZM34.7744 24.7766L33.3372 23.9802C31.976 23.2255 30.8632 22.0973 30.1182 20.7174L29.3321 19.2608C29.1795 18.9781 28.715 18.9781 28.5624 19.2608L27.776 20.7174C27.0313 22.0973 25.9185 23.2255 24.5573 23.9802L23.1201 24.7766C23.0518 24.8144 22.9949 24.8699 22.9552 24.9372C22.9156 25.0044 22.8947 25.0811 22.8948 25.1592C22.8947 25.2373 22.9155 25.314 22.9552 25.3813C22.9948 25.4486 23.0517 25.5041 23.12 25.542L24.5573 26.3384C25.9185 27.0927 27.0313 28.221 27.776 29.6008L28.5624 31.0575C28.6385 31.199 28.7863 31.2871 28.9473 31.2871C29.1083 31.2871 29.256 31.1991 29.3322 31.0575L30.1182 29.6008C30.8631 28.221 31.976 27.0927 33.3372 26.3384L34.7745 25.542C34.8428 25.5041 34.8998 25.4487 34.9394 25.3814C34.9791 25.3141 35 25.2374 35 25.1593C35 25.0812 34.9791 25.0045 34.9394 24.9372C34.8998 24.8699 34.8428 24.8145 34.7745 24.7766H34.7744ZM32.913 25.5733C31.4052 26.4089 30.1729 27.6579 29.3485 29.1853L28.9473 29.9286L28.546 29.1852C27.722 27.6579 26.4893 26.4089 24.9815 25.5733L24.2345 25.1592L24.9815 24.7452C26.4893 23.9095 27.7219 22.6604 28.546 21.1333L28.9473 20.39L29.3485 21.1334C30.1729 22.6604 31.4052 23.9095 32.913 24.7452L33.66 25.1592L32.913 25.5733ZM16.1068 19.7661C15.5801 20.1343 15.2259 20.6841 15.1112 21.3169C14.995 21.9534 15.1343 22.5973 15.5024 23.1291C15.8705 23.6614 16.4159 23.9972 17.0047 24.1187C16.4303 25.2713 14.1021 30.0384 14.1021 31.6072C14.1021 33.4781 15.6242 35.0002 17.4947 35.0002C19.3656 35.0002 20.8873 33.4781 20.8873 31.6072C20.8873 30.0377 18.5571 25.2666 17.9844 24.117C18.2942 24.0536 18.5973 23.9342 18.8733 23.7432C19.4056 23.3747 19.7628 22.8213 19.8787 22.1844C19.9944 21.5478 19.8552 20.904 19.4871 20.3723C19.3202 20.131 19.1112 19.9317 18.8779 19.7685C22.0776 19.1266 24.4959 16.2961 24.4959 12.9102C24.4959 9.19878 21.5883 6.1614 17.9323 5.93641V4.90299C19.0895 4.69774 19.9718 3.68671 19.9718 2.4717C19.9718 1.10879 18.8629 0 17.5 0C16.1371 0 15.0283 1.10887 15.0283 2.4717C15.0283 3.68337 15.9052 4.69202 17.0574 4.90128V5.93676C13.4061 6.16704 10.5038 9.20211 10.5038 12.9102C10.5038 16.2907 12.9144 19.1182 16.1068 19.7661H16.1068ZM12.4339 16.3408L14.4236 15.1919C15.041 16.0221 15.983 16.5959 17.0625 16.7193V19.0091C15.1399 18.8722 13.4586 17.8492 12.4339 16.3408ZM17.5001 9.94945C19.1326 9.94945 20.4607 11.2779 20.4607 12.9102C20.4607 14.5427 19.1326 15.8712 17.5001 15.8712C15.8676 15.8712 14.539 14.5427 14.539 12.9102C14.539 11.2779 15.8675 9.94945 17.5001 9.94945ZM17.4947 34.1249C16.1065 34.1249 14.9769 32.9954 14.9769 31.6072C14.9769 30.5237 16.5471 27.0596 17.4947 25.1054C18.4423 27.0596 20.0125 30.5237 20.0125 31.6072C20.0125 32.9954 18.8829 34.1249 17.4947 34.1249ZM19.0174 22.0279C18.9816 22.228 18.9064 22.4191 18.7963 22.59C18.6861 22.7609 18.5431 22.9083 18.3756 23.0235C17.674 23.5092 16.7076 23.3333 16.222 22.6313C16.1059 22.4644 16.0239 22.2762 15.981 22.0774C15.9381 21.8787 15.935 21.6734 15.972 21.4735C16.0078 21.2733 16.083 21.0822 16.1932 20.9113C16.3033 20.7404 16.4464 20.593 16.6139 20.4777C16.8759 20.2968 17.1796 20.2024 17.4915 20.2024C17.5846 20.2024 17.6783 20.2107 17.7721 20.2278C17.9722 20.2637 18.1633 20.339 18.3342 20.4492C18.5051 20.5594 18.6525 20.7024 18.7678 20.8699C18.8839 21.0369 18.9657 21.2252 19.0085 21.4239C19.0514 21.6227 19.0544 21.8279 19.0175 22.0279H19.0174ZM17.9377 19.0091V16.7193C19.0172 16.5959 19.9591 16.0221 20.5763 15.1919L22.5663 16.3408C21.5416 17.8492 19.8603 18.8722 17.9377 19.0091ZM22.9995 15.5801L21.0175 14.436C21.2277 13.9548 21.3361 13.4353 21.3359 12.9102C21.3359 12.3681 21.2214 11.8527 21.0175 11.3847L22.9995 10.2406C23.3934 11.0487 23.6211 11.9522 23.6211 12.9102C23.6211 13.8681 23.3934 14.772 22.9995 15.5801ZM22.5663 9.47991L20.5762 10.6288C19.9591 9.79863 19.0172 9.2245 17.9377 9.10137V6.81158C19.8603 6.94839 21.5416 7.97156 22.5663 9.47991ZM15.9032 2.4717C15.9032 1.59115 16.6195 0.874829 17.5001 0.874829C18.3802 0.874829 19.0965 1.59115 19.0965 2.4717C19.0965 3.35183 18.3803 4.06815 17.5001 4.06815C16.6195 4.06815 15.9032 3.35192 15.9032 2.4717ZM17.0625 6.81158V9.10137C15.983 9.2245 15.041 9.79863 14.4236 10.6288L12.4339 9.47982C13.4586 7.97147 15.1399 6.94839 17.0625 6.81158ZM12.0006 10.2406L13.9827 11.3847C13.7725 11.8658 13.6641 12.3852 13.6642 12.9102C13.664 13.4353 13.7725 13.9547 13.9827 14.4359L12.0006 15.5801C11.6064 14.772 11.3791 13.8682 11.3791 12.9102C11.3791 11.9522 11.6064 11.0487 12.0006 10.2406Z" fill="#161D51"/>
</g>
<defs>
<clipPath id="clip0_3145_13052">
<rect width="35" height="35" fill="white"/>
</clipPath>
</defs>
</svg>
