<svg width="17" height="18" viewBox="0 0 17 18" fill="none" xmlns="http://www.w3.org/2000/svg">
<path d="M10.0725 15.8213C9.23662 15.8213 8.05371 15.2333 7.11871 12.4213L6.60871 10.8913L5.07871 10.3813C2.27371 9.44625 1.68579 8.26334 1.68579 7.4275C1.68579 6.59875 2.27371 5.40875 5.07871 4.46667L11.0925 2.46209C12.5941 1.95917 13.8479 2.10792 14.62 2.87292C15.392 3.63792 15.5408 4.89875 15.0379 6.40042L13.0333 12.4142C12.0912 15.2333 10.9083 15.8213 10.0725 15.8213ZM5.41162 5.47959C3.44246 6.13834 2.74121 6.9175 2.74121 7.4275C2.74121 7.9375 3.44246 8.71667 5.41162 9.36834L7.19662 9.96334C7.35246 10.0129 7.47996 10.1404 7.52954 10.2963L8.12454 12.0813C8.77621 14.0504 9.56246 14.7517 10.0725 14.7517C10.5825 14.7517 11.3616 14.0504 12.0204 12.0813L14.025 6.0675C14.3862 4.97667 14.3225 4.08417 13.862 3.62375C13.4016 3.16334 12.5091 3.10667 11.4254 3.46792L5.41162 5.47959Z" fill="#161D51"/>
<path d="M7.16131 10.7C7.02673 10.7 6.89215 10.6504 6.7859 10.5442C6.58048 10.3388 6.58048 9.99875 6.7859 9.79334L9.32173 7.25042C9.52715 7.04501 9.86715 7.04501 10.0726 7.25042C10.278 7.45584 10.278 7.79584 10.0726 8.00126L7.53673 10.5442C7.43757 10.6504 7.2959 10.7 7.16131 10.7Z" fill="#161D51"/>
</svg>
