<svg width="45" height="45" viewBox="0 0 45 45" fill="none" xmlns="http://www.w3.org/2000/svg">
<path d="M42.2405 27.2918C41.9241 15.5004 41.7667 9.60298 41.7667 9.60298C41.758 9.2813 41.5031 9.02026 41.1823 9.00444C40.0089 8.94731 38.8435 9.37446 37.9813 10.1787C37.0268 11.069 36.4836 12.3733 36.4511 13.8525L36.2815 16.9067C35.7505 16.5009 35.137 16.2164 34.4841 16.0735C35.2075 15.4354 35.6654 14.502 35.6654 13.4631C35.6654 11.5454 34.1053 9.9853 32.1875 9.9853C32.1594 9.9853 32.1313 9.98706 32.1032 9.98706C30.9984 7.0814 28.6517 4.84458 25.6951 3.87954C25.6371 2.16567 24.2273 0.789307 22.5011 0.789307C20.775 0.789307 19.3625 2.16567 19.3045 3.87954C16.3497 4.84458 14.0039 7.0814 12.8991 9.98706C12.8701 9.98706 12.8411 9.98442 12.8121 9.98442C10.8943 9.98442 9.33423 11.5445 9.33423 13.4623C9.33423 14.5011 9.79214 15.4354 10.5164 16.0735C9.86345 16.2163 9.24988 16.5007 8.71899 16.9067L8.54936 13.8525C8.51684 12.3724 7.97368 11.0681 7.01919 10.1778C6.15698 9.37358 4.99155 8.94732 3.81821 9.00356C3.66322 9.01111 3.51682 9.077 3.40841 9.18803C3.29999 9.29905 3.23759 9.44697 3.23374 9.6021C3.23374 9.6021 3.07641 15.4996 2.76001 27.291C2.75561 27.4474 2.81098 27.5995 2.91557 27.7164C2.91557 27.7164 6.25366 31.4649 12.9272 38.9584L10.8495 38.9567C10.5102 38.9567 10.2351 39.2309 10.2342 39.5702L10.2219 43.5692C10.2219 43.7327 10.2861 43.8891 10.4012 44.0051C10.5164 44.1211 10.6728 44.1862 10.8363 44.1862L34.1484 44.209C34.4876 44.209 34.7627 43.9348 34.7636 43.5956L34.7759 39.5965C34.7759 39.4331 34.7118 39.2766 34.5966 39.1606C34.4815 39.0446 34.325 38.9795 34.1616 38.9795L32.0566 38.9778C38.7416 31.4719 42.0849 27.7172 42.0849 27.7172C42.1889 27.6004 42.2446 27.4483 42.2405 27.2918ZM36.1901 18.5467L36.0873 20.3968L36.0442 21.2828C35.6724 21.1202 35.2207 21.0015 34.7293 21.0419C34.2196 21.0841 33.4831 21.3232 32.852 22.2197C32.7158 22.3717 32.0144 23.1601 30.747 24.5848V23.6453C30.747 21.5623 29.7363 19.7113 28.1797 18.5546C28.8073 17.7074 29.7934 17.1976 30.8648 17.1976H33.5103C34.5676 17.1976 35.5546 17.6986 36.1901 18.5458V18.5467ZM20.593 18.5388H24.4075C27.2252 18.5388 29.5174 20.8301 29.5174 23.6461V25.9234C27.8704 26.1053 26.5107 26.8032 25.4745 28.0029C23.6314 30.136 22.8509 33.8248 23.1515 38.9707H21.8481C22.1496 33.8265 21.3708 30.1386 19.5269 28.0046C18.4907 26.8049 17.131 26.1062 15.4822 25.9243V23.647C15.4822 20.831 17.7744 18.5397 20.5921 18.5397L20.593 18.5388ZM22.5011 16.9418C20.5605 16.9418 18.9811 15.3633 18.9811 13.4245C18.9811 11.4856 20.5605 9.90444 22.5011 9.90444C24.4417 9.90444 26.0194 11.4838 26.0194 13.4245C26.0194 15.3651 24.4409 16.9418 22.5011 16.9418ZM34.4349 13.464C34.4349 14.7042 33.4268 15.714 32.1875 15.714C30.9483 15.714 29.9402 14.705 29.9402 13.464C29.9402 12.223 30.9483 11.2167 32.1875 11.2167C33.4268 11.2167 34.4349 12.2248 34.4349 13.464ZM22.5011 2.02065C23.5848 2.02065 24.4672 2.90396 24.4672 3.98853C24.4672 5.0731 23.5857 5.95464 22.5011 5.95464C21.4166 5.95464 20.5333 5.0731 20.5333 3.98853C20.5333 2.90396 21.4166 2.02065 22.5011 2.02065ZM19.5058 5.11089C19.962 6.32202 21.1318 7.18599 22.5011 7.18599C23.8705 7.18599 25.0385 6.32202 25.4938 5.11089C27.9486 5.96958 29.9041 7.83286 30.8806 10.2419C29.6088 10.7596 28.7097 12.0085 28.7097 13.464C28.7097 14.502 29.1667 15.4345 29.8892 16.0726C28.7721 16.3161 27.7842 16.9708 27.1198 17.9192C26.5023 17.6259 25.8412 17.4354 25.1625 17.3549C26.421 16.4998 27.2499 15.0575 27.2499 13.4245C27.2499 10.8044 25.1194 8.6731 22.5011 8.6731C19.8829 8.6731 17.7498 10.8044 17.7498 13.4245C17.7498 15.0575 18.5786 16.4998 19.838 17.3549C19.1455 17.4375 18.4872 17.6309 17.8816 17.9183C17.2171 16.9708 16.2292 16.3161 15.1122 16.0735C15.8355 15.4354 16.2925 14.5029 16.2925 13.4649C16.2925 12.0094 15.3934 10.7614 14.1208 10.2428C15.0972 7.83374 17.0519 5.97046 19.5058 5.11177V5.11089ZM12.8121 11.2167C14.0522 11.2167 15.0621 12.2248 15.0621 13.464C15.0621 14.7033 14.0531 15.714 12.8121 15.714C11.571 15.714 10.5647 14.705 10.5647 13.464C10.5647 12.223 11.5728 11.2167 12.8121 11.2167ZM11.4919 17.1985H14.1357C15.208 17.1985 16.1941 17.7074 16.8216 18.5546C15.2642 19.7104 14.2526 21.5623 14.2526 23.6461V24.5857C12.9852 23.161 12.2838 22.3735 12.1476 22.2206C11.5166 21.3241 10.7791 21.085 10.2694 21.0428C9.77807 21.0024 9.3272 21.121 8.95542 21.2836L8.91235 20.3933L8.80952 18.5467C9.44497 17.6995 10.4329 17.1985 11.4919 17.1985ZM3.99663 27.0818C4.24975 17.6494 4.39917 12.0419 4.44663 10.2595C5.08823 10.3465 5.69907 10.6322 6.17983 11.0795C6.90141 11.7528 7.29516 12.7249 7.31889 13.8903V13.9123L7.68276 20.4584L7.7645 22.1283C6.91811 23.0942 6.97524 24.5549 7.94731 25.6509L13.0221 31.3559C13.0797 31.421 13.1504 31.4731 13.2297 31.5088C13.3089 31.5444 13.3949 31.5627 13.4818 31.5624C13.6277 31.5624 13.7736 31.5115 13.8905 31.4069C14.1445 31.181 14.1673 30.7916 13.9415 30.5385L8.86665 24.8335C8.35776 24.2596 8.17143 23.386 8.80073 22.827L8.81391 22.8138C8.81655 22.8112 8.81919 22.8094 8.82183 22.8068C8.8605 22.7734 9.52846 22.2003 10.1973 22.2733C10.5541 22.3128 10.8679 22.5343 11.1553 22.9527C11.1694 22.9738 11.1852 22.994 11.2028 23.0133C11.2028 23.0133 12.3612 24.3141 14.678 26.9192C14.7844 27.0393 14.9336 27.1128 15.0937 27.124C16.5597 27.2286 17.7049 27.7796 18.5944 28.8097C20.2309 30.7038 20.9094 34.1209 20.6141 38.969L14.5751 38.9628L3.99487 27.0827L3.99663 27.0818ZM33.5349 42.9794L11.4541 42.9583L11.4629 40.1907L33.5446 40.2118L33.5358 42.9794H33.5349ZM30.4095 38.9778L24.3846 38.9716C24.0902 34.1192 24.7696 30.7011 26.4061 28.8071C27.2956 27.7779 28.4399 27.2277 29.905 27.1231C30.065 27.1117 30.2144 27.0378 30.3208 26.9183C32.6375 24.3124 33.7959 23.0125 33.7959 23.0125C33.8126 22.9931 33.8285 22.9729 33.8434 22.9518C34.1308 22.5343 34.4446 22.312 34.8014 22.2724C35.4729 22.1977 36.14 22.7725 36.1778 22.8059C36.1804 22.8085 36.1831 22.8103 36.1857 22.8129L36.1989 22.8261C36.8282 23.386 36.6418 24.2596 36.133 24.8327L31.0608 30.5376C30.8349 30.7917 30.8578 31.181 31.1118 31.406C31.2287 31.5106 31.3754 31.5616 31.5205 31.5616C31.6901 31.5616 31.8588 31.4921 31.981 31.355L37.0541 25.6492C38.0252 24.5541 38.0833 23.0933 37.2369 22.1274L37.3186 20.4619L37.6825 13.9123V13.8903C37.7062 12.7249 38.0999 11.7528 38.8224 11.0795C39.3023 10.6313 39.9131 10.3457 40.5547 10.2586C40.6022 12.0411 40.7516 17.6485 41.0047 27.0809C40.2331 27.9484 36.7007 31.9149 30.4104 38.9769L30.4095 38.9778Z" fill="#161D51"/>
</svg>
