<svg width="45" height="45" viewBox="0 0 45 45" fill="none" xmlns="http://www.w3.org/2000/svg">
<g clip-path="url(#clip0_3145_13123)">
<path d="M44.0467 28.8319C43.7398 27.9279 43.008 27.2718 41.9861 26.9845C40.9783 26.7012 39.6929 26.7629 38.1614 27.1651C35.793 26.4435 32.6764 26.0284 29.3051 25.9833L29.305 21.2204C31.917 21.6195 34.5828 21.1222 36.8869 19.7919C39.6423 18.201 41.5872 15.6246 42.3632 12.5371C42.4021 12.3821 42.3792 12.218 42.2993 12.0795C42.2193 11.9411 42.0886 11.8392 41.9349 11.7954C39.0506 10.9745 35.5097 11.4125 32.914 12.9112C31.2357 13.8803 30.1097 15.0991 29.3048 16.3038L29.3047 13.4044L29.3779 13.2957C30.2652 11.9811 31.7501 9.78098 31.9137 7.61562C32.0796 5.41905 30.9562 2.74613 29.1183 0.964406C29.0035 0.853125 28.8499 0.790894 28.69 0.790894C28.5302 0.790894 28.3766 0.853125 28.2618 0.964406C26.487 2.68522 25.3374 5.41607 25.4662 7.60551C25.5816 9.56802 26.7307 11.3304 27.7446 12.8854C27.8551 13.0547 27.965 13.2244 28.0742 13.3945L28.0743 16.2849C27.2684 15.0657 26.1616 13.8722 24.4974 12.9114C21.9016 11.4128 18.3606 10.9751 15.4764 11.7961C15.3226 11.8399 15.1919 11.9418 15.112 12.0802C15.0321 12.2187 15.0092 12.3828 15.0482 12.5378C15.8244 15.6252 17.7694 18.2015 20.5248 19.7923C22.312 20.8241 24.3167 21.355 26.3453 21.355C26.9211 21.355 27.4991 21.3117 28.0744 21.2255L28.0745 25.9837C26.1334 26.0106 24.2274 26.1641 22.5182 26.4321L22.3215 26.3796C18.2687 23.5446 16.0984 24.3618 12.9074 25.9251C11.1467 26.7876 9.35767 27.6371 7.53394 28.4986L7.39068 28.173C6.97065 27.2181 5.85189 26.7821 4.89652 27.2013L1.92634 28.5041C1.46079 28.7084 1.10351 29.0797 0.92026 29.55C0.737095 30.0202 0.748961 30.5354 0.953658 31.0009L6.26612 43.0779C6.57769 43.7863 7.27379 44.209 8.00257 44.209C8.25605 44.209 8.51366 44.1577 8.76028 44.0496L11.7305 42.7467C12.196 42.5425 12.5534 42.171 12.7365 41.7009C12.9197 41.2307 12.9078 40.7155 12.7031 40.2501L12.1847 39.0715L14.8353 37.7804C15.5456 37.4344 16.2599 37.3727 17.019 37.5927L23.2508 39.3971C23.7092 39.5299 24.1828 39.5867 24.6633 39.5867C26.3225 39.5866 28.0612 38.9086 29.5226 38.3387C29.6513 38.2885 41.5909 33.6769 41.5909 33.6769C43.4884 32.9441 44.6589 30.6349 44.0467 28.8319ZM33.5294 13.9769C35.64 12.7583 38.5662 12.323 41.002 12.8324C40.2188 15.3293 38.5569 17.407 36.2717 18.7264C34.2202 19.9109 31.8478 20.3573 29.522 20.0091L34.7884 16.9683C34.8589 16.9282 34.9208 16.8746 34.9705 16.8104C35.0202 16.7463 35.0568 16.673 35.078 16.5947C35.0993 16.5164 35.1049 16.4346 35.0944 16.3542C35.0839 16.2737 35.0577 16.1961 35.0171 16.1259C34.9765 16.0556 34.9225 15.9941 34.858 15.9448C34.7936 15.8955 34.72 15.8594 34.6416 15.8387C34.5631 15.818 34.4813 15.8129 34.401 15.8239C34.3206 15.8349 34.2431 15.8617 34.1731 15.9027L29.3866 18.6664C30.1544 17.0533 31.2724 15.2799 33.5294 13.9769ZM26.6946 7.53335C26.5958 5.85376 27.401 3.78174 28.6916 2.29903C30.0248 3.81259 30.8136 5.84357 30.6868 7.52307C30.5956 8.72893 29.9526 10.0506 29.3047 11.1378L29.3046 7.31099C29.3046 7.14782 29.2398 6.99133 29.1244 6.87595C29.009 6.76057 28.8526 6.69575 28.6894 6.69575C28.5262 6.69575 28.3697 6.76057 28.2544 6.87595C28.139 6.99133 28.0742 7.14782 28.0742 7.31099L28.0742 11.1149C27.3796 9.98014 26.7669 8.76224 26.6946 7.53335ZM21.1401 18.7268C18.8549 17.4075 17.1928 15.33 16.4095 12.833C18.8454 12.3235 21.7715 12.7586 23.8821 13.9771C26.1035 15.2595 27.1903 16.9739 27.993 18.6665L23.2063 15.903C23.1363 15.862 23.0589 15.8352 22.9785 15.8242C22.8981 15.8132 22.8164 15.8182 22.7379 15.839C22.6595 15.8597 22.5859 15.8957 22.5215 15.945C22.457 15.9943 22.4029 16.0559 22.3624 16.1261C22.3218 16.1964 22.2955 16.274 22.2851 16.3545C22.2746 16.4349 22.2802 16.5166 22.3014 16.5949C22.3227 16.6733 22.3592 16.7466 22.4089 16.8107C22.4587 16.8748 22.5206 16.9285 22.5911 16.9686L27.8645 20.0131C25.5468 20.3545 23.1842 19.9069 21.1401 18.7268ZM28.6898 27.2095C31.2451 27.2095 33.7284 27.4374 35.8079 27.8502L29.9501 29.5734C29.9181 29.5089 29.884 29.4453 29.848 29.383C29.4101 28.6259 28.7063 28.0853 27.8661 27.8609L25.795 27.3075C26.7585 27.2421 27.724 27.2094 28.6898 27.2095ZM11.5902 41.2543C11.5264 41.418 11.4007 41.5478 11.2363 41.62L8.26616 42.9229C7.93182 43.0696 7.53974 42.9171 7.3927 42.5826L2.08015 30.5055C2.00791 30.3411 2.00325 30.1604 2.06697 29.9967C2.13078 29.833 2.25637 29.7031 2.42082 29.631L5.39099 28.3281C5.47465 28.2913 5.56503 28.2723 5.65642 28.2723C5.91157 28.2723 6.15546 28.4204 6.26454 28.6684L11.577 40.7455C11.6492 40.9099 11.654 41.0906 11.5902 41.2543ZM41.1476 32.5291C41.1476 32.5291 29.2056 37.1417 29.0756 37.1924C27.3642 37.8598 25.2342 38.6904 23.5931 38.2154L17.3613 36.411C16.3108 36.1068 15.2796 36.1954 14.2964 36.6744L11.689 37.9445L8.02964 29.6255C9.86796 28.7572 11.6714 27.9009 13.4488 27.0302C16.4247 25.5722 18.1434 24.9288 21.7014 27.448C21.761 27.4901 21.8276 27.5213 21.8981 27.5402L27.5485 29.0498C28.0711 29.1894 28.5094 29.5266 28.7827 29.9991C29.056 30.4717 29.1296 31.0197 28.9901 31.5423C28.8505 32.0649 28.5133 32.5033 28.0407 32.7765C27.5682 33.0498 27.02 33.1234 26.4974 32.9838L18.9882 30.9777C18.9101 30.9569 18.8288 30.9516 18.7487 30.9622C18.6686 30.9728 18.5913 30.9991 18.5214 31.0395C18.4515 31.08 18.3902 31.1338 18.3411 31.1979C18.2919 31.2621 18.2559 31.3353 18.2351 31.4133C18.2142 31.4914 18.2089 31.5728 18.2195 31.6529C18.2301 31.733 18.2564 31.8102 18.2969 31.8801C18.3373 31.9501 18.3911 32.0113 18.4553 32.0605C18.5194 32.1096 18.5926 32.1456 18.6707 32.1665L26.1798 34.1726C27.02 34.3971 27.8996 34.2795 28.6567 33.8417C29.4138 33.4038 29.9544 32.7 30.1788 31.8599C30.275 31.5014 30.3091 31.1291 30.2797 30.7591L38.0925 28.4608C40.6707 27.7024 42.4609 27.9891 42.8814 29.2277C43.2803 30.4018 42.4214 32.0372 41.1476 32.5291Z" fill="#161D51"/>
</g>
<defs>
<clipPath id="clip0_3145_13123">
<rect width="45" height="45" fill="white"/>
</clipPath>
</defs>
</svg>
