<svg width="45" height="45" viewBox="0 0 45 45" fill="none" xmlns="http://www.w3.org/2000/svg">
<path d="M14.7985 24.9666C14.27 24.4413 13.555 24.1465 12.8099 24.1467C12.0647 24.1469 11.3499 24.442 10.8216 24.9675C10.6629 25.1489 10.5293 25.3507 10.4241 25.5675L9.37505 24.8269V19.6889C9.37505 18.943 9.07873 18.2276 8.55128 17.7002C8.02384 17.1727 7.30847 16.8764 6.56255 16.8764C5.81662 16.8764 5.10125 17.1727 4.57381 17.7002C4.04636 18.2276 3.75005 18.943 3.75005 19.6889V28.1813C3.7477 28.5884 3.83472 28.9911 4.00497 29.3609C4.17522 29.7307 4.42454 30.0586 4.73536 30.3216L13.125 37.9172V40.3139C13.125 40.5626 13.2238 40.801 13.3996 40.9768C13.5754 41.1527 13.8139 41.2514 14.0625 41.2514C14.3112 41.2514 14.5496 41.1527 14.7255 40.9768C14.9013 40.801 15 40.5626 15 40.3139V37.5014C15.0001 37.3705 14.9728 37.241 14.9198 37.1213C14.8669 37.0016 14.7895 36.8943 14.6925 36.8063L5.96395 28.906C5.85733 28.8178 5.77161 28.7071 5.713 28.5817C5.65439 28.4564 5.62435 28.3196 5.62505 28.1813V19.6875C5.62505 19.4389 5.72382 19.2004 5.89963 19.0246C6.07545 18.8488 6.31391 18.75 6.56255 18.75C6.81119 18.75 7.04964 18.8488 7.22546 19.0246C7.40127 19.2004 7.50005 19.4389 7.50005 19.6875V25.3125C7.5 25.4628 7.53609 25.611 7.60527 25.7444C7.67444 25.8779 7.77469 25.9928 7.89755 26.0794L10.141 27.6614C10.2523 28.1504 10.4938 28.6002 10.8399 28.9631L14.4633 32.3883C14.644 32.5592 14.8852 32.6514 15.1339 32.6445C15.3825 32.6376 15.6182 32.5322 15.7892 32.3515C15.9601 32.1708 16.0523 31.9296 16.0454 31.681C16.0385 31.4323 15.9331 31.1966 15.7524 31.0257L12.1472 27.6192C12.0612 27.5311 11.9934 27.4269 11.9476 27.3126C11.9019 27.1983 11.8791 27.076 11.8806 26.9529C11.882 26.8298 11.9078 26.7081 11.9563 26.5949C12.0047 26.4817 12.0751 26.3792 12.1632 26.2931C12.2513 26.2071 12.3555 26.1393 12.4698 26.0935C12.5842 26.0478 12.7064 26.025 12.8295 26.0265C12.9527 26.028 13.0743 26.0537 13.1875 26.1022C13.3007 26.1507 13.4032 26.221 13.4893 26.3091L18.4754 31.0524C18.5627 31.1387 18.632 31.2416 18.6792 31.355C18.7263 31.4684 18.7504 31.59 18.75 31.7128V40.3135C18.75 40.5621 18.8488 40.8006 19.0246 40.9764C19.2004 41.1522 19.4389 41.251 19.6875 41.251C19.9362 41.251 20.1746 41.1522 20.3505 40.9764C20.5263 40.8006 20.625 40.5621 20.625 40.3135V31.7128C20.6252 31.3402 20.5511 30.9712 20.4071 30.6276C20.263 30.2839 20.0518 29.9724 19.786 29.7113L14.7985 24.9666ZM38.4375 16.876C37.6919 16.8768 36.977 17.1734 36.4498 17.7007C35.9225 18.2279 35.6259 18.9428 35.625 19.6885V24.8274L34.5765 25.5666C34.4711 25.3498 34.3373 25.148 34.1785 24.9666C33.654 24.4418 32.9433 24.1457 32.2013 24.1427C31.4593 24.1397 30.7463 24.4301 30.2175 24.9506L25.1954 29.7291C24.9345 29.9893 24.7277 30.2985 24.5869 30.639C24.4461 30.9794 24.3741 31.3444 24.375 31.7128V40.3135C24.375 40.5621 24.4738 40.8006 24.6496 40.9764C24.8254 41.1522 25.0639 41.251 25.3125 41.251C25.5612 41.251 25.7996 41.1522 25.9755 40.9764C26.1513 40.8006 26.25 40.5621 26.25 40.3135V31.7128C26.2481 31.4735 26.3402 31.2429 26.5065 31.0706L31.5268 26.2941C31.7007 26.1187 31.9368 26.0191 32.1838 26.0169C32.4308 26.0146 32.6687 26.1099 32.8458 26.2821C33.0229 26.4543 33.1249 26.6894 33.1297 26.9363C33.1344 27.1833 33.0415 27.4221 32.8711 27.601L29.2477 31.0261C29.0671 31.1971 28.9617 31.4328 28.9549 31.6814C28.948 31.93 29.0402 32.1711 29.2111 32.3517C29.3821 32.5324 29.6178 32.6377 29.8664 32.6446C30.115 32.6514 30.3561 32.5592 30.5368 32.3883L34.179 28.9449C34.5202 28.586 34.7574 28.141 34.8652 27.6577L37.103 26.0794C37.2257 25.9928 37.3257 25.8781 37.3948 25.7448C37.4639 25.6115 37.5 25.4636 37.5 25.3135V19.6885C37.5 19.4398 37.5988 19.2014 37.7746 19.0255C37.9504 18.8497 38.1889 18.751 38.4375 18.751C38.6862 18.751 38.9246 18.8497 39.1005 19.0255C39.2763 19.2014 39.375 19.4398 39.375 19.6885V28.1813C39.3741 28.3263 39.3403 28.4692 39.2761 28.5993C39.212 28.7293 39.1192 28.8432 39.0047 28.9322L30.308 36.8058C30.211 36.8938 30.1335 37.0011 30.0805 37.1208C30.0274 37.2405 30 37.37 30 37.501V40.3135C30 40.5621 30.0988 40.8006 30.2746 40.9764C30.4504 41.1522 30.6889 41.251 30.9375 41.251C31.1862 41.251 31.4246 41.1522 31.6005 40.9764C31.7763 40.8006 31.875 40.5621 31.875 40.3135V37.9167L40.2338 30.3488C40.5526 30.0849 40.809 29.7538 40.9847 29.3791C41.1604 29.0045 41.251 28.5956 41.25 28.1817V19.688C41.2492 18.9423 40.9526 18.2275 40.4253 17.7002C39.8981 17.173 39.1832 16.8768 38.4375 16.876ZM33.75 10.965C33.75 7.78924 32.2102 5.18909 29.7329 4.1794C27.42 3.23627 24.7725 3.8644 22.5 5.83877C20.2257 3.8644 17.5782 3.23627 15.2672 4.1794C12.7899 5.18909 11.25 7.78924 11.25 10.965C11.25 17.0672 16.8971 22.1578 22.1447 24.3061C22.3725 24.3989 22.6276 24.3989 22.8554 24.3061C28.103 22.1578 33.75 17.0667 33.75 10.965ZM22.5 22.4213C17.9171 20.4272 13.125 16.0702 13.125 10.965C13.125 8.56643 14.2163 6.6319 15.976 5.91518C16.447 5.72421 16.9508 5.62693 17.4591 5.62877C18.9038 5.62877 20.4568 6.37643 21.8297 7.78268C22.0097 7.95625 22.25 8.05324 22.5 8.05324C22.7501 8.05324 22.9904 7.95625 23.1704 7.78268C25.0304 5.87768 27.2185 5.1783 29.0241 5.91518C30.7838 6.63237 31.875 8.56643 31.875 10.965C31.875 16.0702 27.083 20.4272 22.5 22.4213Z" fill="#161D51"/>
</svg>
