<svg width="45" height="45" viewBox="0 0 45 45" fill="none" xmlns="http://www.w3.org/2000/svg">
<path fill-rule="evenodd" clip-rule="evenodd" d="M16.2587 6.84734C16.9903 5.69275 18.0469 4.78019 19.2957 4.22438C20.5444 3.66856 21.9296 3.49429 23.2772 3.72346C24.6247 3.95264 25.8744 4.57503 26.8692 5.51241C27.864 6.4498 28.5595 7.66034 28.8683 8.99187C28.8797 9.02617 28.8877 9.0615 28.8922 9.09734C29.2773 10.8764 28.9469 12.7355 27.9723 14.2729C26.9977 15.8103 25.4572 16.9023 23.6839 17.313C23.6495 17.3243 23.6142 17.3323 23.5784 17.3368C22.2425 17.6248 20.8514 17.5117 19.5796 17.0117C18.3078 16.5117 17.2121 15.647 16.4301 14.5264C15.6481 13.4057 15.2146 12.079 15.1841 10.7128C15.1536 9.34655 15.5274 8.00179 16.2587 6.84734ZM20.843 4.88738C19.5302 5.18111 18.3599 5.92093 17.5314 6.98077C16.703 8.04062 16.2677 9.35493 16.2996 10.6998C16.3315 12.0446 16.8288 13.3368 17.7066 14.3561C18.5844 15.3754 19.7885 16.0589 21.1137 16.29C22.4389 16.5211 23.8033 16.2855 24.9743 15.6235C26.1453 14.9614 27.0506 13.9138 27.5358 12.6591C28.0211 11.4045 28.0563 10.0204 27.6354 8.74271C27.2146 7.46501 26.3638 6.37275 25.2279 5.65203C24.5835 5.2418 23.8643 4.96306 23.1118 4.83183C22.3593 4.7006 21.5882 4.71948 20.843 4.88738ZM31.8349 17.4601C31.6706 17.673 30.9026 18.6406 30.8215 18.798C30.7206 18.995 30.6915 19.2209 30.7393 19.437C30.7872 19.6531 30.9088 19.8457 31.0835 19.9817L35.8267 23.6456C36.0258 23.7983 36.2771 23.866 36.5259 23.8341C36.7747 23.8022 37.0007 23.6732 37.1548 23.4752L38.0768 22.2815C38.2296 22.0826 38.2975 21.8312 38.2657 21.5823C38.2338 21.3335 38.1048 21.1073 37.9068 20.9532L33.1635 17.2893C32.9643 17.1369 32.713 17.0694 32.4643 17.1013C32.2156 17.1333 31.9896 17.2621 31.8354 17.4598L31.8349 17.4601ZM15.7591 5.65141C14.4683 7.33523 13.8961 9.4614 14.1676 11.5656C14.4391 13.6699 15.5321 15.5812 17.2081 16.8823C18.8841 18.1833 21.0067 18.7683 23.1126 18.5096C25.2184 18.2509 27.1363 17.1694 28.4475 15.5014L28.5003 15.4336C29.7938 13.7437 30.3637 11.6096 30.085 9.4998C29.8062 7.39004 28.7016 5.47715 27.0136 4.1812C25.3256 2.88524 23.1923 2.31217 21.0822 2.58782C18.972 2.86348 17.0575 3.96533 15.7591 5.65141ZM28.6549 16.9629L30.0369 17.9566L30.9258 16.8058L29.625 15.7897C29.5464 15.9023 29.4651 16.0136 29.3809 16.1237C29.1554 16.4173 28.913 16.6975 28.6549 16.9629ZM30.9383 21.2838L35.1426 24.5313C35.4512 24.7686 35.8205 24.9142 36.2081 24.9512C36.5957 24.9882 36.9859 24.9153 37.3339 24.7406L41.1823 29.5345C41.2571 29.6293 41.2916 29.7497 41.2783 29.8698C41.2651 29.9898 41.2051 30.0998 41.1114 30.1761L39.2384 31.6796C39.1436 31.7544 39.0231 31.789 38.9031 31.7757C38.783 31.7625 38.673 31.7025 38.5968 31.6088L30.8404 21.9469C30.679 21.7458 30.7118 21.4655 30.9382 21.2837L30.9383 21.2838ZM19.4519 38.3809L18.5041 40.0221L18.5032 40.0216C18.4173 40.1729 18.3949 40.352 18.441 40.5198C18.5153 40.7971 18.6756 40.8789 18.8775 40.9954L18.8769 40.9964C19.0283 41.0814 19.207 41.1038 19.3748 41.0589C19.5426 41.014 19.6862 40.9053 19.775 40.756L21.0376 38.569C21.1235 38.4174 21.1463 38.2381 21.1011 38.0699C21.056 37.9016 20.9464 37.7578 20.7962 37.6696L20.7968 37.6686C20.5909 37.5498 20.4357 37.4582 20.1667 37.5303C19.999 37.5746 19.8556 37.6836 19.7681 37.8334C19.6646 38.014 19.5499 38.1985 19.4523 38.3809H19.4519ZM13.9664 35.1596C14.216 34.7341 14.3383 34.0857 13.9377 33.8545C13.7313 33.7354 13.5759 33.643 13.3061 33.7153C13.2227 33.7373 13.1445 33.7755 13.0759 33.8278C13.0074 33.8801 12.9498 33.9454 12.9065 34.02L11.6438 36.207L11.6429 36.2065C11.557 36.3578 11.5346 36.537 11.5807 36.7048C11.655 36.982 11.8153 37.0638 12.0172 37.1804C12.1694 37.2683 12.3497 37.2936 12.5202 37.2511C12.6907 37.2086 12.8381 37.1015 12.9312 36.9525L13.9663 35.1595L13.9664 35.1596ZM17.2164 37.0377C17.3045 36.8878 17.4479 36.7784 17.6158 36.7331C17.7836 36.6878 17.9626 36.7101 18.1141 36.7953L18.1136 36.7962L18.2454 36.8723L18.246 36.8714C18.5523 37.0345 18.6735 37.4898 18.5177 37.7581L17.5348 39.4629C17.3785 39.7338 17.1249 40.087 16.8239 40.2307C16.5778 40.3479 16.4134 40.2492 16.1947 40.123L16.1952 40.122C16.0453 40.0339 15.9359 39.8905 15.8906 39.7227C15.8452 39.5548 15.8675 39.3758 15.9527 39.2242L15.9537 39.2248L17.2164 37.0377ZM16.227 36.5111L14.9844 38.6656C14.9405 38.7378 14.8823 38.8004 14.8136 38.8496C14.7449 38.8988 14.6669 38.9336 14.5844 38.9519C14.2962 39.0232 14.1318 38.9319 13.9139 38.8062L13.9145 38.8052C13.8399 38.762 13.7746 38.7045 13.7223 38.6359C13.67 38.5674 13.6318 38.4892 13.6098 38.4058C13.518 38.063 13.7177 37.8307 13.9006 37.5139H13.8999L14.9354 35.7209C14.9787 35.6463 15.0362 35.581 15.1048 35.5287C15.1734 35.4764 15.2516 35.4382 15.3349 35.4162C15.6053 35.3438 15.7633 35.4381 15.9666 35.5554C16.1258 35.6501 16.2429 35.8018 16.294 35.9798C16.3637 36.2155 16.3116 36.3363 16.2268 36.511L16.227 36.5111ZM14.1764 23.6385C15.4508 24.1345 17.1846 24.9252 18.2164 25.1747C18.0214 25.3862 17.8384 25.6253 17.6383 25.8875C17.226 26.4269 16.6864 27.1226 16.2477 27.6048C15.864 28.0267 15.5651 28.2372 15.4411 28.7913C15.3123 29.3676 15.4334 30.1103 15.851 30.5918C16.4773 31.314 17.6945 31.4468 18.551 31.1455C19.5167 30.8054 20.5198 29.8821 21.6902 29.5599C24.0545 28.9089 27.4131 31.6289 29.8758 33.6233C30.4799 34.1124 31.0319 34.5595 31.5346 34.9266C32.391 35.5667 32.0532 36.9042 31.0144 37.0663C30.8596 37.091 30.7014 37.0848 30.549 37.0482C30.3965 37.0116 30.2528 36.9453 30.1261 36.853L27.1741 34.6968C27.0543 34.6096 26.9047 34.5735 26.7583 34.5965C26.6119 34.6196 26.4806 34.6998 26.3934 34.8196C26.3062 34.9394 26.2701 35.089 26.2931 35.2354C26.3162 35.3818 26.3964 35.5131 26.5162 35.6003L29.4827 37.7666C29.6778 39.2455 28.094 39.4778 27.4801 39.0291L24.9553 37.1847C24.896 37.1407 24.8286 37.1089 24.757 37.0911C24.6853 37.0733 24.6109 37.0699 24.5379 37.081C24.4649 37.0921 24.3949 37.1176 24.3318 37.156C24.2688 37.1943 24.2139 37.2448 24.1705 37.3045C24.127 37.3641 24.0958 37.4318 24.0787 37.5036C24.0615 37.5754 24.0588 37.6499 24.0706 37.7228C24.0824 37.7956 24.1085 37.8654 24.1474 37.9282C24.1864 37.9909 24.2373 38.0452 24.2974 38.0882L26.8223 39.9323C26.8685 39.966 26.9163 39.9978 26.9657 40.0276C26.9101 40.6035 26.5671 41.1175 25.9637 41.1208C25.6385 41.1225 25.3877 41.0018 25.0513 40.7716L23.3533 39.5314C23.294 39.4882 23.2267 39.4571 23.1554 39.4399C23.084 39.4227 23.01 39.4197 22.9375 39.4311C22.865 39.4425 22.7955 39.4681 22.7329 39.5064C22.6703 39.5447 22.6158 39.5949 22.5726 39.6542C22.5294 39.7136 22.4983 39.7808 22.4811 39.8521C22.4639 39.9235 22.4609 39.9975 22.4723 40.07C22.4837 40.1425 22.5093 40.212 22.5476 40.2747C22.5859 40.3373 22.6361 40.3917 22.6954 40.4349L24.1607 41.5052C24.1116 41.8129 23.9746 42.2637 23.6818 42.4121C23.2698 42.6211 22.5431 42.2509 21.8932 41.7692L20.904 41.0362L22.0066 39.1262C22.2418 38.7183 22.3055 38.2338 22.1837 37.779C22.062 37.3242 21.7647 36.9363 21.3572 36.7004C21.268 36.6407 21.1734 36.5895 21.0746 36.5475C20.6993 36.3754 20.2756 36.3399 19.8769 36.4471C19.7399 36.4838 19.6078 36.5366 19.4833 36.6045C19.3325 36.3233 19.1092 36.0877 18.8366 35.9221L18.8375 35.9206L18.6728 35.827C18.2763 35.5976 17.8063 35.5308 17.3616 35.6408C17.2336 35.2275 16.9654 34.8718 16.6032 34.6349L16.3938 34.5112L16.3943 34.5103C16.0682 34.3215 15.6904 34.2418 15.3159 34.2826C15.2841 33.6799 14.9918 33.1723 14.4947 32.8851L14.3629 32.809C13.955 32.5739 13.4705 32.5103 13.0157 32.632C12.5609 32.7538 12.173 33.051 11.9371 33.4584L11.7098 33.8521C11.246 33.3828 11.1297 33.3329 10.3515 32.8246C10.1554 32.6964 10.0245 32.5786 9.8119 32.561C9.25326 32.5113 8.7044 32.3832 8.18144 32.1806L8.18223 32.1787C7.97113 32.0929 7.77188 31.9805 7.58932 31.8441L14.1764 23.6385ZM14.0876 21.2303L12.2145 19.7266C12.1197 19.6517 11.9992 19.6172 11.8792 19.6305C11.7591 19.6437 11.6491 19.7037 11.5729 19.7974L3.81697 29.4595C3.74213 29.5543 3.7076 29.6748 3.72086 29.7948C3.73411 29.9149 3.79408 30.0249 3.88781 30.1011L5.76084 31.6047C5.85566 31.6795 5.97611 31.7141 6.09616 31.7008C6.21622 31.6875 6.32623 31.6276 6.40245 31.5339L14.1588 21.872C14.2337 21.7772 14.2683 21.6568 14.2552 21.5368C14.242 21.4167 14.1821 21.3067 14.0885 21.2304L14.0876 21.2303ZM37.8645 32.4637C38.1412 32.7269 38.504 32.881 38.8857 32.8973C39.2673 32.9136 39.6419 32.7911 39.9401 32.5524L41.8132 31.0487C42.1386 30.7865 42.3467 30.406 42.392 29.9906C42.4373 29.5753 42.3161 29.1589 42.055 28.8327L38.1695 23.9924L38.9628 22.9653C39.2963 22.5311 39.4444 21.9825 39.3746 21.4394C39.3049 20.8964 39.023 20.403 38.5905 20.0671L33.8472 16.4033C33.5673 16.1877 33.2369 16.0474 32.8874 15.9958C32.5378 15.9442 32.1809 15.9831 31.8507 16.1088L30.2118 14.8282C31.0245 13.2865 31.3801 11.5448 31.2368 9.80793C31.0934 8.07104 30.4571 6.41119 29.4026 5.02358C28.3482 3.63597 26.9194 2.57831 25.2844 1.97496C23.6494 1.37162 21.876 1.24769 20.173 1.61774C18.4699 1.98779 16.9079 2.83644 15.6707 4.06389C14.4335 5.29134 13.5725 6.84655 13.1889 8.54662C12.8054 10.2467 12.9153 12.0209 13.5056 13.6607C14.096 15.3005 15.1423 16.7376 16.5215 17.803L16.5522 17.8272C18.171 19.0661 20.1569 19.7294 22.1953 19.7119C24.2337 19.6944 26.208 18.9971 27.8052 17.7305L29.607 19.0259C29.5806 19.299 29.6083 19.5747 29.6885 19.8371C29.7687 20.0995 29.8999 20.3435 30.0745 20.5552C29.8225 20.8116 29.6654 21.1461 29.6292 21.5038C29.593 21.8614 29.6798 22.2207 29.8752 22.5224C28.9756 22.8415 28.2322 23.0756 27.448 23.1978C26.4631 23.3514 25.3702 23.3369 23.7512 23.1071C23.0587 23.0088 22.1558 23.2271 21.2771 23.5466C20.7257 23.7469 20.1863 23.9836 19.7209 24.2023C18.6389 24.2606 17.7422 23.889 16.2307 23.2625C15.8332 23.0978 15.3958 22.9165 14.9117 22.7242L15.0313 22.5752C15.2924 22.249 15.4136 21.8326 15.3682 21.4172C15.3229 21.0018 15.1147 20.6213 14.7894 20.3591L12.9164 18.8555C12.5902 18.5943 12.1737 18.4732 11.7584 18.5185C11.343 18.5638 10.9625 18.772 10.7003 19.0974L2.94395 28.7579C2.68283 29.084 2.56166 29.5004 2.60698 29.9158C2.6523 30.3312 2.86042 30.7116 3.18574 30.9738L5.05886 32.4776C5.30002 32.6708 5.5926 32.789 5.90031 32.8175C6.20802 32.846 6.51732 32.7835 6.78987 32.6379C7.07753 32.8782 7.4007 33.0724 7.74788 33.2137L7.74858 33.2119C8.33642 33.4456 8.95369 33.5971 9.58294 33.6622L9.73772 33.7634C10.7618 34.4328 10.4718 34.2109 11.131 34.8553L10.6745 35.6479C10.4393 36.0557 10.3757 36.5402 10.4977 36.9949C10.6196 37.4496 10.9172 37.8373 11.3249 38.0726L11.3244 38.0736C11.7123 38.2975 12.0154 38.4163 12.4729 38.3876C12.4971 38.6726 12.5899 38.9475 12.7432 39.189C12.8965 39.4305 13.1058 39.6314 13.3535 39.7746L13.4887 39.8513C13.8914 40.0809 14.3657 40.1511 14.8176 40.0478C14.9445 40.4882 15.2372 40.8623 15.6342 41.0913C15.7578 41.1244 16.4973 41.7574 17.4858 41.1457C17.6412 41.4562 17.8845 41.7142 18.1852 41.8877L18.1847 41.8886L18.3186 41.9647C18.6058 42.1303 18.9336 42.2122 19.265 42.2012C19.5964 42.1902 19.9181 42.0866 20.1936 41.9023C21.192 42.6422 22.2415 43.5343 23.3151 43.5879C24.3002 43.637 24.9141 42.9766 25.1713 42.0987C26.545 42.5893 27.8057 41.7611 28.0503 40.3508C29.3489 40.4253 30.5272 39.566 30.6167 38.1893C31.0174 38.2264 31.4209 38.1582 31.7872 37.9914C32.1535 37.8246 32.4699 37.565 32.7051 37.2384C32.9402 36.9117 33.086 36.5293 33.1279 36.1291C33.1699 35.7288 33.1065 35.3245 32.9442 34.9562C33.2463 34.8589 33.5369 34.7288 33.8107 34.5682C34.4501 34.1869 35.1066 33.4742 35.15 33.4467L37.8653 32.4637H37.8645ZM34.661 32.4328C34.5808 32.4602 34.5079 32.5056 34.4479 32.5655C33.6063 33.4017 33.3041 33.708 32.1847 34.0139C31.7849 33.7351 31.13 33.1984 30.5824 32.7545C27.9302 30.6067 24.3132 27.6777 21.3968 28.4806C20.5774 28.7061 19.831 29.1618 19.2253 29.5316C18.7073 29.8481 18.2078 30.1785 17.6622 30.1796C17.3658 30.1801 16.9018 30.0947 16.6978 29.8595C16.5242 29.6593 16.4819 29.2637 16.5336 29.0326C16.5632 28.8999 16.6695 28.7889 16.8458 28.6048C17.4183 27.9828 17.9581 27.3316 18.463 26.6536C18.8327 26.1702 19.1498 25.7307 19.5592 25.5266C20.5887 25.0133 22.5879 24.0726 23.5976 24.216C25.3291 24.4621 26.5196 24.4737 27.6191 24.3024C28.6091 24.1481 29.4897 23.8522 30.6088 23.4481L37.1099 31.5463L34.661 32.4328Z" fill="#161D51"/>
</svg>
