<svg width="35" height="33" viewBox="0 0 35 33" fill="none" xmlns="http://www.w3.org/2000/svg">
<path d="M34.9934 10.6339C34.9903 10.5795 34.9795 10.5259 34.9613 10.4746C34.9556 10.4584 34.9524 10.4417 34.9453 10.4262C34.9423 10.4195 34.9418 10.4121 34.9385 10.4055L30.2718 1.07221C30.2632 1.05525 30.2501 1.0422 30.2401 1.02634C30.2299 1.00982 30.2189 0.993828 30.2071 0.978418C30.1664 0.926055 30.1202 0.879502 30.0654 0.844092C30.0629 0.842519 30.0618 0.839922 30.0593 0.83835C30.0588 0.838008 30.0582 0.838076 30.0577 0.837734C29.9999 0.801846 29.9347 0.780176 29.867 0.766162C29.8478 0.762442 29.8283 0.759727 29.8088 0.758027C29.789 0.755977 29.7702 0.749756 29.75 0.749756H5.25C5.22983 0.749756 5.21104 0.755977 5.19121 0.758027C5.17139 0.76001 5.15272 0.762129 5.13304 0.766162C5.06536 0.780176 5.00015 0.801777 4.94225 0.837734C4.9417 0.838076 4.94115 0.838008 4.94061 0.83835C4.93814 0.839922 4.93691 0.84252 4.93445 0.84416C4.87963 0.879502 4.83342 0.926055 4.79281 0.978418C4.78058 0.994141 4.77012 1.00966 4.75973 1.02641C4.74981 1.04227 4.73655 1.05532 4.72808 1.07221L0.0615234 10.4056C0.0582422 10.4122 0.0576953 10.4196 0.0546191 10.4263C0.0475781 10.4417 0.0444336 10.4582 0.0387598 10.4744C0.0205058 10.5258 0.0096646 10.5795 0.0065625 10.634C0.00587891 10.6453 0 10.655 0 10.6665C0 10.6747 0.004375 10.6816 0.00464844 10.6897C0.00738281 10.7585 0.018457 10.8265 0.0452539 10.8907C0.0477832 10.8968 0.0525 10.9014 0.0552344 10.9075C0.0751953 10.9512 0.0982324 10.994 0.129336 11.0325L17.046 32.0325C17.0529 32.0411 17.0638 32.0443 17.0711 32.0524C17.0791 32.0613 17.0877 32.0692 17.0962 32.0776C17.1113 32.0925 17.1236 32.1088 17.1404 32.1221C17.1654 32.1418 17.1933 32.1558 17.2211 32.1711C17.2391 32.1811 17.2558 32.1906 17.2747 32.1987C17.2919 32.206 17.3073 32.2165 17.3252 32.2221C17.3269 32.2226 17.328 32.224 17.3297 32.2245C17.4407 32.2586 17.5594 32.2586 17.6704 32.2245C17.6721 32.2239 17.6732 32.2225 17.6749 32.2221C17.6928 32.2165 17.7082 32.206 17.7254 32.1987C17.7445 32.1906 17.7611 32.1811 17.779 32.1711C17.8069 32.1558 17.8347 32.1418 17.8597 32.1221C17.8765 32.1088 17.8888 32.0925 17.9039 32.0776C17.9124 32.0692 17.921 32.0612 17.929 32.0524C17.9363 32.0443 17.9473 32.041 17.9541 32.0325L34.8708 11.0325C34.9018 10.9942 34.9247 10.9515 34.9447 10.9079C34.9476 10.9017 34.9523 10.8969 34.955 10.8905C34.9817 10.8264 34.9928 10.7585 34.9955 10.6896C34.9958 10.6815 35.0001 10.6746 35.0001 10.6664C35 10.655 34.9941 10.6453 34.9934 10.6339ZM28.6978 1.91651L23.8936 9.60318L18.609 1.91651H28.6978ZM22.8077 10.0831H12.1923L17.5 2.36283L22.8077 10.0831ZM16.391 1.91651L11.1064 9.60318L6.30219 1.91651H16.391ZM5.30674 2.52416L10.0311 10.0832H1.52715L5.30674 2.52416ZM1.80243 11.2498H10.6518L16.0598 28.9487L1.80243 11.2498ZM17.5 29.671L11.8713 11.2498H23.1287L17.5 29.671ZM18.9402 28.9487L24.3482 11.2498H33.1976L18.9402 28.9487ZM24.9689 10.0831L29.6933 2.52416L33.4729 10.0832H24.9689V10.0831Z" fill="#161D51"/>
</svg>
