<svg width="21" height="22" viewBox="0 0 21 22" fill="none" xmlns="http://www.w3.org/2000/svg">
<path d="M10.5 19.4438C10.2288 19.4438 9.96625 19.4088 9.7475 19.33C6.405 18.1838 1.09375 14.115 1.09375 8.10375C1.09375 5.04125 3.57 2.55625 6.615 2.55625C8.09375 2.55625 9.47625 3.13375 10.5 4.16625C11.5238 3.13375 12.9062 2.55625 14.385 2.55625C17.43 2.55625 19.9062 5.05 19.9062 8.10375C19.9062 14.1238 14.595 18.1838 11.2525 19.33C11.0337 19.4088 10.7712 19.4438 10.5 19.4438ZM6.615 3.86875C4.29625 3.86875 2.40625 5.7675 2.40625 8.10375C2.40625 14.08 8.155 17.405 10.1763 18.0963C10.3337 18.1488 10.675 18.1488 10.8325 18.0963C12.845 17.405 18.6025 14.0888 18.6025 8.10375C18.6025 5.7675 16.7125 3.86875 14.3938 3.86875C13.0638 3.86875 11.83 4.49 11.0337 5.56625C10.7887 5.89875 10.2288 5.89875 9.98375 5.56625C9.17 4.48125 7.945 3.86875 6.615 3.86875Z" fill="#161D51"/>
</svg>
