<svg width="17" height="18" viewBox="0 0 17 18" fill="none" xmlns="http://www.w3.org/2000/svg">
<path d="M10.6883 15.1413C10.8229 15.1413 10.9575 15.0917 11.0637 14.9854C11.2691 14.78 11.2691 14.44 11.0637 14.2346L6.44538 9.61626C6.10538 9.27626 6.10538 8.72376 6.44538 8.38376L11.0637 3.76543C11.2691 3.56001 11.2691 3.22001 11.0637 3.0146C10.8583 2.80918 10.5183 2.80918 10.3129 3.0146L5.69454 7.63293C5.33329 7.99418 5.12788 8.48293 5.12788 9.00001C5.12788 9.5171 5.32621 10.0058 5.69454 10.3671L10.3129 14.9854C10.4191 15.0846 10.5537 15.1413 10.6883 15.1413Z" fill="#415285"/>
</svg>
