<svg width="17" height="17" viewBox="0 0 17 17" fill="none" xmlns="http://www.w3.org/2000/svg">
<path d="M6.31171 14.6413C6.17712 14.6413 6.04254 14.5917 5.93629 14.4854C5.73087 14.28 5.73087 13.94 5.93629 13.7346L10.5546 9.11626C10.8946 8.77626 10.8946 8.22376 10.5546 7.88376L5.93629 3.26543C5.73087 3.06001 5.73087 2.72001 5.93629 2.5146C6.14171 2.30918 6.48171 2.30918 6.68712 2.5146L11.3055 7.13293C11.6667 7.49418 11.8721 7.98293 11.8721 8.50001C11.8721 9.0171 11.6738 9.50585 11.3055 9.8671L6.68712 14.4854C6.58087 14.5846 6.44629 14.6413 6.31171 14.6413Z" fill="#415285"/>
</svg>
