<svg width="17" height="17" viewBox="0 0 17 17" fill="none" xmlns="http://www.w3.org/2000/svg">
<path d="M8.4997 11.5671C6.80678 11.5671 5.43262 10.1929 5.43262 8.50001C5.43262 6.80709 6.80678 5.43292 8.4997 5.43292C10.1926 5.43292 11.5668 6.80709 11.5668 8.50001C11.5668 10.1929 10.1926 11.5671 8.4997 11.5671ZM8.4997 6.49542C7.3947 6.49542 6.49512 7.39501 6.49512 8.50001C6.49512 9.60501 7.3947 10.5046 8.4997 10.5046C9.6047 10.5046 10.5043 9.60501 10.5043 8.50001C10.5043 7.39501 9.6047 6.49542 8.4997 6.49542Z" fill="#0C113D"/>
<path d="M8.49965 14.8892C5.83632 14.8892 3.32173 13.3308 1.5934 10.625C0.842565 9.45626 0.842565 7.55084 1.5934 6.37501C3.32881 3.66917 5.8434 2.11084 8.49965 2.11084C11.1559 2.11084 13.6705 3.66917 15.3988 6.37501C16.1496 7.54376 16.1496 9.44917 15.3988 10.625C13.6705 13.3308 11.1559 14.8892 8.49965 14.8892ZM8.49965 3.17334C6.21173 3.17334 4.02298 4.54751 2.49298 6.94876C1.96173 7.77751 1.96173 9.22251 2.49298 10.0513C4.02298 12.4525 6.21173 13.8267 8.49965 13.8267C10.7876 13.8267 12.9763 12.4525 14.5063 10.0513C15.0376 9.22251 15.0376 7.77751 14.5063 6.94876C12.9763 4.54751 10.7876 3.17334 8.49965 3.17334Z" fill="#0C113D"/>
</svg>
