<svg width="21" height="22" viewBox="0 0 21 22" fill="none" xmlns="http://www.w3.org/2000/svg">
<path d="M12.9683 2.90625V2.40625H12.4683H5.24956C4.0338 2.40625 2.92362 3.06595 2.32886 4.12215L2.32886 4.12215L2.32746 4.12466C2.28735 4.19685 2.18992 4.22587 2.1149 4.18419C2.04272 4.14409 2.01368 4.04662 2.05537 3.97157L1.61829 3.72875L2.05454 3.97305C2.70188 2.81709 3.9271 2.09375 5.24956 2.09375H13.1246C13.2072 2.09375 13.2808 2.16739 13.2808 2.25V11C13.2808 12.0539 12.4284 12.9062 11.3746 12.9062H10.4996C10.417 12.9062 10.3433 12.8326 10.3433 12.75C10.3433 12.6674 10.417 12.5938 10.4996 12.5938H11.3746C12.2545 12.5938 12.9683 11.8799 12.9683 11V2.90625Z" fill="#161D51" stroke="#161D51"/>
<path d="M16.625 18.6562H15.75C15.3912 18.6562 15.0938 18.3588 15.0938 18C15.0938 17.3962 14.6038 16.9062 14 16.9062C13.3962 16.9062 12.9062 17.3962 12.9062 18C12.9062 18.3588 12.6088 18.6562 12.25 18.6562H8.75C8.39125 18.6562 8.09375 18.3588 8.09375 18C8.09375 17.3962 7.60375 16.9062 7 16.9062C6.39625 16.9062 5.90625 17.3962 5.90625 18C5.90625 18.3588 5.60875 18.6562 5.25 18.6562H4.375C2.56375 18.6562 1.09375 17.1862 1.09375 15.375C1.09375 15.0162 1.39125 14.7188 1.75 14.7188C2.10875 14.7188 2.40625 15.0162 2.40625 15.375C2.40625 16.46 3.29 17.3438 4.375 17.3438H4.68123C4.96998 16.3375 5.8975 15.5938 7 15.5938C8.1025 15.5938 9.03002 16.3375 9.31877 17.3438H11.69C11.9787 16.3375 12.9063 15.5938 14.0088 15.5938C15.1113 15.5938 16.0387 16.3375 16.3275 17.3438H16.625C17.71 17.3438 18.5938 16.46 18.5938 15.375V13.4062H16.625C15.785 13.4062 15.0938 12.715 15.0938 11.875V9.25C15.0938 8.41 15.7762 7.71875 16.625 7.71875L15.6887 6.0825C15.4962 5.74125 15.1288 5.53125 14.735 5.53125H13.7812V11C13.7812 12.33 12.705 13.4062 11.375 13.4062H10.5C10.1412 13.4062 9.84375 13.1088 9.84375 12.75C9.84375 12.3912 10.1412 12.0938 10.5 12.0938H11.375C11.9788 12.0938 12.4688 11.6038 12.4688 11V4.875C12.4688 4.51625 12.7662 4.21875 13.125 4.21875H14.735C15.6013 4.21875 16.3975 4.68251 16.8262 5.43501L18.3225 8.05125C18.4363 8.2525 18.4363 8.50625 18.3225 8.7075C18.2088 8.90875 17.99 9.03125 17.7537 9.03125H16.625C16.5025 9.03125 16.4062 9.1275 16.4062 9.25V11.875C16.4062 11.9975 16.5025 12.0938 16.625 12.0938H19.25C19.6087 12.0938 19.9062 12.3912 19.9062 12.75V15.375C19.9062 17.1862 18.4363 18.6562 16.625 18.6562Z" fill="#161D51"/>
<path d="M7 20.4062C5.67 20.4062 4.59375 19.33 4.59375 18C4.59375 16.67 5.67 15.5938 7 15.5938C8.33 15.5938 9.40625 16.67 9.40625 18C9.40625 19.33 8.33 20.4062 7 20.4062ZM7 16.9062C6.39625 16.9062 5.90625 17.3963 5.90625 18C5.90625 18.6037 6.39625 19.0938 7 19.0938C7.60375 19.0938 8.09375 18.6037 8.09375 18C8.09375 17.3963 7.60375 16.9062 7 16.9062Z" fill="#161D51"/>
<path d="M14 20.4062C12.67 20.4062 11.5938 19.33 11.5938 18C11.5938 16.67 12.67 15.5938 14 15.5938C15.33 15.5938 16.4062 16.67 16.4062 18C16.4062 19.33 15.33 20.4062 14 20.4062ZM14 16.9062C13.3963 16.9062 12.9062 17.3963 12.9062 18C12.9062 18.6037 13.3963 19.0938 14 19.0938C14.6037 19.0938 15.0938 18.6037 15.0938 18C15.0938 17.3963 14.6037 16.9062 14 16.9062Z" fill="#161D51"/>
<path d="M19.25 13.4062H16.625C15.785 13.4062 15.0938 12.715 15.0938 11.875V9.25C15.0938 8.41 15.785 7.71875 16.625 7.71875H17.7537C17.99 7.71875 18.2088 7.84125 18.3225 8.05125L19.8188 10.6763C19.8713 10.7725 19.9062 10.8863 19.9062 11V12.75C19.9062 13.1087 19.6087 13.4062 19.25 13.4062ZM16.625 9.03125C16.5025 9.03125 16.4062 9.1275 16.4062 9.25V11.875C16.4062 11.9975 16.5025 12.0938 16.625 12.0938H18.5938V11.175L17.3687 9.03125H16.625Z" fill="#161D51"/>
<path d="M7 8.15625H1.75C1.39125 8.15625 1.09375 7.85875 1.09375 7.5C1.09375 7.14125 1.39125 6.84375 1.75 6.84375H7C7.35875 6.84375 7.65625 7.14125 7.65625 7.5C7.65625 7.85875 7.35875 8.15625 7 8.15625Z" fill="#161D51"/>
<path d="M5.25 10.7812H1.75C1.39125 10.7812 1.09375 10.4837 1.09375 10.125C1.09375 9.76625 1.39125 9.46875 1.75 9.46875H5.25C5.60875 9.46875 5.90625 9.76625 5.90625 10.125C5.90625 10.4837 5.60875 10.7812 5.25 10.7812Z" fill="#161D51"/>
<path d="M3.5 13.4062H1.75C1.39125 13.4062 1.09375 13.1087 1.09375 12.75C1.09375 12.3913 1.39125 12.0938 1.75 12.0938H3.5C3.85875 12.0938 4.15625 12.3913 4.15625 12.75C4.15625 13.1087 3.85875 13.4062 3.5 13.4062Z" fill="#161D51"/>
</svg>
 