<svg width="17" height="18" viewBox="0 0 17 18" fill="none" xmlns="http://www.w3.org/2000/svg">
<path d="M3.9244 14.3262C3.49232 14.3262 3.08857 14.1774 2.79815 13.9012C2.42982 13.5541 2.25273 13.0299 2.31648 12.4633L2.57857 10.1683C2.62815 9.73619 2.89023 9.16244 3.19482 8.85078L9.01024 2.69536C10.4623 1.15828 11.9782 1.11578 13.5152 2.56786C15.0523 4.01994 15.0948 5.53578 13.6427 7.07286L7.82732 13.2283C7.52982 13.547 6.97732 13.8445 6.54523 13.9154L4.2644 14.3049C4.14398 14.312 4.03773 14.3262 3.9244 14.3262ZM11.284 2.56078C10.7386 2.56078 10.264 2.90078 9.78232 3.41078L3.9669 9.57328C3.82523 9.72203 3.66232 10.0762 3.63398 10.2816L3.3719 12.5766C3.34357 12.8104 3.40023 13.0016 3.52773 13.122C3.65523 13.2424 3.84648 13.2849 4.08023 13.2495L6.36107 12.8599C6.56648 12.8245 6.90648 12.6404 7.04815 12.4916L12.8636 6.33619C13.7419 5.40119 14.0607 4.53703 12.7786 3.33286C12.2119 2.78744 11.7232 2.56078 11.284 2.56078Z" fill="white"/>
<path d="M12.2826 8.25594C12.2685 8.25594 12.2472 8.25594 12.2331 8.25594C10.0231 8.03636 8.24515 6.35761 7.90515 4.16177C7.86265 3.87136 8.06098 3.60219 8.3514 3.55261C8.64181 3.51011 8.91098 3.70844 8.96056 3.99886C9.22973 5.71302 10.6181 7.03052 12.3464 7.20052C12.6368 7.22886 12.8493 7.49094 12.821 7.78136C12.7856 8.05052 12.5518 8.25594 12.2826 8.25594Z" fill="white"/>
<path d="M14.875 16.6143H2.125C1.83458 16.6143 1.59375 16.3734 1.59375 16.083C1.59375 15.7926 1.83458 15.5518 2.125 15.5518H14.875C15.1654 15.5518 15.4062 15.7926 15.4062 16.083C15.4062 16.3734 15.1654 16.6143 14.875 16.6143Z" fill="white"/>
</svg>
