<svg width="35" height="35" viewBox="0 0 35 35" fill="none" xmlns="http://www.w3.org/2000/svg">
<path d="M29.4414 13.356C29.0855 13.0169 28.6128 12.8278 28.1212 12.8278C27.6297 12.8278 27.157 13.0169 26.8011 13.356L22.6962 17.4608C23.5128 15.9045 24.0895 14.2337 24.4068 12.505L24.8312 10.1726C24.8525 10.0561 24.8353 9.93586 24.7823 9.82994C24.7294 9.72403 24.6435 9.63816 24.5375 9.58525L23.7238 9.17838C22.6746 8.65225 21.7455 7.91509 20.9945 7.01309C20.2436 6.1111 19.687 5.06371 19.3597 3.93658C19.2378 2.12807 16.4668 0.777832 12.8087 0.777832C9.15067 0.777832 6.37965 2.12807 6.2577 3.93658C5.93042 5.06371 5.37387 6.1111 4.62291 7.01309C3.87196 7.91509 2.94279 8.65225 1.89363 9.17838L1.07988 9.58525C0.973943 9.63816 0.888037 9.72403 0.835079 9.82994C0.782122 9.93586 0.764973 10.0561 0.786213 10.1726L1.21113 12.5105C1.70227 15.1856 2.80786 17.71 4.44081 19.8851C6.07376 22.0601 8.18945 23.8262 10.6212 25.0443V28.1998C8.64535 28.3442 5.15246 28.8101 5.15246 30.3091V32.4966C5.15246 34.6228 12.025 34.6841 12.8087 34.6841C13.5924 34.6841 20.465 34.6228 20.465 32.4966V30.3091C20.465 28.8101 16.9721 28.3442 14.9962 28.1998V25.0454C17.6286 23.7232 19.8864 21.7605 21.562 19.3377C21.562 19.3492 21.5587 19.3601 21.5587 19.3716C21.558 19.6169 21.6059 19.8599 21.6998 20.0865C21.7937 20.3131 21.9316 20.5188 22.1056 20.6917L25.9337 24.5199V28.2539C24.4834 28.4371 22.1056 28.9452 22.1056 30.3091V32.4966C22.1056 33.9994 25.2228 34.6841 28.1212 34.6841C31.0196 34.6841 34.1368 33.9994 34.1368 32.4966V30.3091C34.1368 28.9419 31.753 28.4366 30.3087 28.2539V24.5199L34.1368 20.6917C34.487 20.3416 34.6836 19.8667 34.6836 19.3716C34.6836 18.8764 34.487 18.4016 34.1368 18.0514L29.4414 13.356ZM18.8243 13.356C18.8243 13.4641 18.7923 13.5699 18.7322 13.6598C18.6721 13.7497 18.5867 13.8198 18.4867 13.8612C18.3868 13.9026 18.2769 13.9134 18.1708 13.8923C18.0647 13.8712 17.9672 13.8191 17.8908 13.7427C17.8143 13.6662 17.7622 13.5687 17.7411 13.4626C17.72 13.3566 17.7308 13.2466 17.7722 13.1467C17.8136 13.0467 17.8837 12.9613 17.9736 12.9012C18.0636 12.8412 18.1693 12.8091 18.2775 12.8091C18.4225 12.8091 18.5616 12.8667 18.6642 12.9693C18.7667 13.0718 18.8243 13.2109 18.8243 13.356ZM18.616 11.7514C18.5047 11.7275 18.3913 11.7154 18.2775 11.7153C17.8631 11.7165 17.4646 11.8747 17.1623 12.158C16.8599 12.4414 16.6763 12.8288 16.6483 13.2422C16.0995 13.5545 15.5207 13.811 14.9207 14.0078C14.6939 13.6502 14.3827 13.3539 14.0144 13.1448C13.6461 12.9358 13.232 12.8205 12.8087 12.8091C12.3853 12.8206 11.9712 12.9361 11.6029 13.1453C11.2346 13.3545 10.9234 13.6511 10.6967 14.0089C10.0967 13.8121 9.51793 13.5556 8.9691 13.2433C8.94141 12.8297 8.75787 12.442 8.45552 12.1584C8.15316 11.8748 7.75449 11.7165 7.33996 11.7153C7.22617 11.7154 7.11269 11.7275 7.00145 11.7514C6.04653 10.8044 5.30435 9.66471 4.82434 8.40838C5.67609 7.56363 6.36237 6.56705 6.84778 5.47002C7.86606 6.59439 10.0913 7.34033 12.8087 7.34033C15.5261 7.34033 17.7514 6.59439 18.7697 5.47002C19.2551 6.56705 19.9413 7.56363 20.7931 8.40838C20.3131 9.66471 19.5709 10.8044 18.616 11.7514ZM14.4493 16.0903C14.4493 17.2967 13.7132 18.2778 12.8087 18.2778C11.9042 18.2778 11.1681 17.2967 11.1681 16.0903C11.1681 14.8839 11.9042 13.9028 12.8087 13.9028C13.7132 13.9028 14.4493 14.8839 14.4493 16.0903ZM7.33996 12.8091C7.44812 12.8091 7.55386 12.8412 7.64379 12.9012C7.73372 12.9613 7.80382 13.0467 7.84521 13.1467C7.8866 13.2466 7.89743 13.3566 7.87633 13.4626C7.85523 13.5687 7.80314 13.6662 7.72666 13.7427C7.65018 13.8191 7.55274 13.8712 7.44665 13.8923C7.34057 13.9134 7.23061 13.9026 7.13068 13.8612C7.03075 13.8198 6.94534 13.7497 6.88525 13.6598C6.82516 13.5699 6.79309 13.4641 6.79309 13.356C6.79309 13.2109 6.8507 13.0718 6.95326 12.9693C7.05582 12.8667 7.19492 12.8091 7.33996 12.8091ZM12.8087 1.87158C15.939 1.87158 18.2775 3.02658 18.2775 4.05908C18.2775 5.09158 15.939 6.24658 12.8087 6.24658C9.6784 6.24658 7.33996 5.09158 7.33996 4.05908C7.33996 3.02658 9.6784 1.87158 12.8087 1.87158ZM12.8087 33.5903C8.90457 33.5903 6.52785 32.8745 6.24621 32.4594V31.551C8.21824 32.4621 12.2219 32.4966 12.8087 32.4966C13.3955 32.4966 17.3992 32.4621 19.3712 31.551V32.4594C19.0896 32.8745 16.7129 33.5903 12.8087 33.5903ZM12.8087 31.4028C9.0227 31.4028 6.67278 30.7296 6.27738 30.3091C6.55082 30.0329 7.8666 29.4997 10.6371 29.2935C10.6507 29.4089 10.7014 29.5167 10.7814 29.6009C11.0049 29.826 11.2708 30.0045 11.5638 30.1261C11.8568 30.2477 12.171 30.3099 12.4882 30.3091H13.1292C13.4463 30.31 13.7605 30.248 14.0535 30.1266C14.3464 30.0052 14.6124 29.8269 14.836 29.602C14.916 29.5178 14.9667 29.41 14.9804 29.2946C17.7508 29.5008 19.0672 30.034 19.34 30.3102C18.9447 30.7296 16.5947 31.4028 12.8087 31.4028ZM13.9025 28.9649C13.6771 29.1269 13.4068 29.2145 13.1292 29.2153H12.4882C12.2107 29.2145 11.9403 29.1269 11.715 28.9649V25.5453C12.0184 25.674 12.3255 25.794 12.6359 25.9051C12.7512 25.9441 12.8763 25.9429 12.9908 25.9018C13.2998 25.7924 13.6022 25.671 13.9025 25.5453V28.9649ZM12.8087 24.8053C10.1206 23.8181 7.73638 22.1469 5.8913 19.9569C4.04622 17.7669 2.80406 15.1336 2.28738 12.3169L1.93574 10.3821L2.38309 10.1584C2.93622 9.87947 3.46079 9.54722 3.94934 9.16635C4.45176 10.3467 5.16484 11.4258 6.05371 12.3508C5.91839 12.5214 5.81853 12.7174 5.76 12.9272C5.70147 13.137 5.68546 13.3563 5.71289 13.5724C5.74033 13.7884 5.81066 13.9968 5.91976 14.1853C6.02886 14.3738 6.17453 14.5386 6.34821 14.67C6.52189 14.8014 6.72008 14.8968 6.93113 14.9505C7.14219 15.0043 7.36185 15.0153 7.57723 14.983C7.7926 14.9506 7.99934 14.8756 8.1853 14.7622C8.37126 14.6488 8.5327 14.4995 8.66012 14.3228C9.16452 14.5934 9.69018 14.8224 10.2318 15.0075C10.128 15.3591 10.0749 15.7237 10.0743 16.0903C10.0743 17.8999 11.301 19.3716 12.8087 19.3716C14.3164 19.3716 15.5431 17.8999 15.5431 16.0903C15.5428 15.7238 15.4902 15.3592 15.3867 15.0075C15.9285 14.8223 16.4543 14.5933 16.9589 14.3228C17.0859 14.5007 17.2472 14.6513 17.4333 14.7658C17.6195 14.8802 17.8267 14.9562 18.0427 14.9892C18.2587 15.0222 18.4791 15.0115 18.6909 14.9579C18.9027 14.9042 19.1017 14.8086 19.2759 14.6768C19.4501 14.5449 19.5962 14.3794 19.7054 14.1902C19.8146 14.0009 19.8847 13.7916 19.9116 13.5748C19.9386 13.358 19.9218 13.1379 19.8622 12.9277C19.8026 12.7174 19.7015 12.5213 19.5648 12.3508C20.4533 11.4257 21.166 10.3466 21.6681 9.16635C22.1564 9.54659 22.6806 9.87829 23.2332 10.1567L23.6806 10.3804L23.33 12.3092C22.8141 15.1271 21.5723 17.7618 19.7273 19.9532C17.8822 22.1446 15.4975 23.817 12.8087 24.8053ZM27.0275 25.5737C27.3441 25.8078 27.7274 25.9341 28.1212 25.9341C28.515 25.9341 28.8983 25.8078 29.215 25.5737V28.9643C28.9897 29.1266 28.7193 29.2144 28.4417 29.2153H27.8007C27.5232 29.2145 27.2528 29.1269 27.0275 28.9649V25.5737ZM28.1212 33.5903C24.922 33.5903 23.2819 32.7919 23.1993 32.4966V31.6369C24.3631 32.2231 26.2854 32.4966 28.1212 32.4966C29.9571 32.4966 31.8799 32.2204 33.0431 31.6363V32.4884C32.9605 32.7919 31.3204 33.5903 28.1212 33.5903ZM33.0431 30.3009C32.9605 30.6044 31.3204 31.4028 28.1212 31.4028C24.922 31.4028 23.2874 30.6066 23.1993 30.3189V30.3156C23.2502 30.1417 24.0295 29.6135 25.9616 29.3542C25.983 29.4471 26.0287 29.5326 26.0939 29.602C26.3175 29.8269 26.5835 30.0052 26.8765 30.1266C27.1694 30.248 27.4836 30.31 27.8007 30.3091H28.4417C28.7588 30.31 29.073 30.248 29.366 30.1266C29.6589 30.0052 29.9249 29.8269 30.1485 29.602C30.2139 29.5326 30.2597 29.4471 30.2814 29.3542C32.2184 29.614 32.9966 30.145 33.0431 30.3009ZM33.3636 19.9185L28.6681 24.6139C28.5197 24.7525 28.3242 24.8296 28.1212 24.8296C27.9182 24.8296 27.7227 24.7525 27.5743 24.6139L22.8789 19.9185C22.7339 19.7734 22.6525 19.5767 22.6525 19.3716C22.6525 19.1665 22.7339 18.9698 22.8789 18.8247L27.5743 14.1292C27.7194 13.9843 27.9161 13.9029 28.1212 13.9029C28.3263 13.9029 28.523 13.9843 28.6681 14.1292L33.3636 18.8247C33.5085 18.9698 33.5899 19.1665 33.5899 19.3716C33.5899 19.5767 33.5085 19.7734 33.3636 19.9185Z" fill="#161D51"/>
<path d="M30.31 18.4074V16.6372H29.2162V18.4074C28.8596 18.6138 28.5681 18.916 28.3747 19.2798C28.1814 19.6436 28.094 20.0543 28.1225 20.4653C28.1225 21.692 28.8432 22.6528 29.7631 22.6528C30.6829 22.6528 31.4037 21.692 31.4037 20.4653C31.4322 20.0543 31.3448 19.6436 31.1514 19.2798C30.9581 18.916 30.6665 18.6138 30.31 18.4074ZM29.7631 21.5591C29.54 21.5591 29.2162 21.1331 29.2162 20.4653C29.2162 19.7976 29.54 19.3716 29.7631 19.3716C29.9862 19.3716 30.31 19.7976 30.31 20.4653C30.31 21.1331 29.9862 21.5591 29.7631 21.5591Z" fill="#161D51"/>
<path d="M27.0287 18.4074V16.6372H25.935V18.4074C25.5784 18.6138 25.2868 18.916 25.0935 19.2798C24.9001 19.6436 24.8127 20.0543 24.8412 20.4653C24.8412 21.692 25.562 22.6528 26.4818 22.6528C27.4017 22.6528 28.1225 21.692 28.1225 20.4653C28.1509 20.0543 28.0635 19.6436 27.8702 19.2798C27.6768 18.916 27.3853 18.6138 27.0287 18.4074ZM26.4818 21.5591C26.2587 21.5591 25.935 21.1331 25.935 20.4653C25.935 19.7976 26.2587 19.3716 26.4818 19.3716C26.705 19.3716 27.0287 19.7976 27.0287 20.4653C27.0287 21.1331 26.705 21.5591 26.4818 21.5591Z" fill="#161D51"/>
</svg>
